<?xml version="1.0" standalone="no"?>
<!DOCTYPE svg PUBLIC "-//W3C//DTD SVG 1.1//EN" "http://www.w3.org/Graphics/SVG/1.1/DTD/svg11.dtd" >
<svg xmlns="http://www.w3.org/2000/svg">
<metadata></metadata>
<defs>
<font id="SlingBold" horiz-adv-x="1349" >
<font-face units-per-em="2048" ascent="1638" descent="-410" />
<missing-glyph horiz-adv-x="672" />
<glyph horiz-adv-x="0" />
<glyph horiz-adv-x="2048" />
<glyph unicode="&#xd;" horiz-adv-x="672" />
<glyph unicode=" "  horiz-adv-x="672" />
<glyph unicode="&#x09;" horiz-adv-x="672" />
<glyph unicode="&#xa0;" horiz-adv-x="672" />
<glyph unicode="!" horiz-adv-x="922" d="M146 1271v89l314 -6l317 6v-88l-127 -26l-97 -807h-183l-95 809zM270 143.5q0 72.5 55.5 124t132.5 51.5t133.5 -51.5t56.5 -122.5t-55 -126q-56 -51 -133.5 -50.5t-133.5 51.5t-56 123.5z" />
<glyph unicode="&#x22;" horiz-adv-x="958" d="M188 1285q0 42 36.5 70.5t83 28.5t82 -30.5t35.5 -68.5l-5 -129l-35 -441q-9 -56 -77.5 -56t-79.5 56zM509 1285q0 42 36.5 70.5t82.5 28.5t82 -30.5t36 -68.5l-5 -129l-35 -441q-9 -56 -78 -56t-79 56z" />
<glyph unicode="#" d="M204 390v161h179l35 254h-158v159h181l54 390h167l-54 -390h215l54 390h165l-52 -390h155v-159h-179l-34 -254h157v-161h-181l-52 -390h-168l55 390h-215l-54 -390h-167l54 390h-157zM551 551h214l35 254h-214z" />
<glyph unicode="$" d="M63 134l103 302l94 -14l1 -119q71 -40 183 -81.5t224.5 -41.5t184 46t71.5 123q0 103 -90 150.5t-241 87.5q-274 71 -386.5 150.5t-112.5 221.5q0 167 162 270q164 101 358 101v197l153 29v-226q94 0 197 -21q140 -20 251 -56l-45 -139l-34 -138l-94 14l-12 103 q-13 6 -136 49q-105 31 -196 31t-124.5 -7t-62.5 -28q-54 -35 -54 -103q0 -87 132 -134l237 -75q315 -89 387 -179q75 -85 75 -252.5t-181 -275.5q-132 -73 -340 -100v-251l-153 -31v277q-251 0 -551 120z" />
<glyph unicode="%" horiz-adv-x="1953" d="M24 986q0 179 123.5 289.5t309.5 110.5t308 -111.5t122 -284t-121 -281.5t-314.5 -109t-310.5 103.5t-117 282.5zM268 997.5q0 -109.5 52.5 -179.5t142.5 -70t135 60t45 170.5t-53 186.5t-135 76t-134.5 -67t-52.5 -176.5zM307 -59l1079 1455h254l-1065 -1441zM1067 353 q0 179 123.5 290.5t306.5 111.5t308.5 -112.5t125.5 -286t-123 -281.5t-315.5 -108t-309 103.5t-116.5 282.5zM1309 366.5q0 -109.5 52.5 -180.5t140.5 -71q183 0 183 230q0 110 -53 187.5t-135.5 77.5t-135 -67t-52.5 -176.5z" />
<glyph unicode="&#x26;" horiz-adv-x="1776" d="M77 392q0 164 89 259t263 156l-14 42q-30 84 -30 129q0 180 148.5 294t364.5 114q136 0 238 -64t102 -179q0 -176 -150 -259q-99 -54 -288 -105q112 -129 209 -206q77 -70 176 -141l19 30q68 115 68 253h-92l-14 90l345 164l7 -92l-2 -37q0 -56 -19 -143 q-23 -149 -106 -280l-52 -77q119 -64 296 -129l111 19l48 -96l-351 -164q-68 28 -195 93l-122 71q-227 -169 -492.5 -168t-411 131.5t-145.5 294.5zM418 460q0 -125 93.5 -208t218.5 -83q87 0 166 30q40 12 73 33q-150 103 -271 222t-184 201q-96 -70 -96 -195z M653.5 1060.5q0.5 -70.5 52.5 -159.5q94 31 145 63q94 56 94 134q0 61 -37 87q-33 28 -98 28q-64 0 -108 -42q-49 -40 -48.5 -110.5z" />
<glyph unicode="'" horiz-adv-x="674" d="M221 1285q0 42 37 70.5t83 28.5t81.5 -30.5t35.5 -68.5l-5 -129l-35 -441q-9 -56 -77.5 -56t-79.5 56z" />
<glyph unicode="(" horiz-adv-x="780" d="M155 440.5q0 321.5 148 573t284 347.5l105 -80q-70 -80 -151 -315.5t-81 -524t80 -523.5t152 -317l-105 -80q-132 94 -282 346t-150 573.5z" />
<glyph unicode=")" horiz-adv-x="780" d="M89 -399q70 80 148 317q84 242 84 524.5t-84 521.5q-76 230 -148 317l104 80q134 -94 283.5 -345t149.5 -572.5t-148.5 -573.5t-284.5 -349z" />
<glyph unicode="*" horiz-adv-x="995" d="M150 1027q0 127 71 217q29 -25 86 -61q44 -21 77.5 -41t70.5 -42l-37 165q-4 33 -29 101q124 37 230 0l-30 -101q-3 -30 -35 -165q99 62 143 82t91 62q30 -47 54 -102q17 -51 17 -115h-54q-26 0 -54 -6l-165 -17l123 -112q34 -31 84 -64q-71 -94 -185 -136q-17 64 -35 99 l-69 155l-68 -155q-12 -26 -35 -99q-61 21 -91 42q-55 41 -96 94q23 14 48.5 35t35.5 29l126 112l-170 17z" />
<glyph unicode="+" horiz-adv-x="1150" d="M91 389v188h392v387h188v-387h390v-188h-390v-392h-188v392h-392z" />
<glyph unicode="," horiz-adv-x="672" d="M127 -333q37 110 53.5 178t16.5 136q12 124 12 280l171 20l164 26q0 -190 -70 -387t-213 -338z" />
<glyph unicode="-" horiz-adv-x="888" d="M96 453q61 95 92 192l605 2q-64 -104 -91 -192z" />
<glyph unicode="." horiz-adv-x="672" d="M150 146.5q0 71.5 55.5 125.5t129.5 54t130 -53t56 -125.5t-53.5 -125.5t-130 -53t-133.5 52q-54 54 -54 125.5z" />
<glyph unicode="/" horiz-adv-x="1171" d="M33 -70l830 1485l298 44l-832 -1483z" />
<glyph unicode="0" d="M75 675.5q0 319.5 161 515t439 195.5q277 0 440 -194t163 -515.5t-162.5 -514.5t-439 -193t-439 193.5t-162.5 513zM439 679.5q0 -244.5 62 -394t179 -149.5t175 150.5t58 394.5t-66 389q-61 150 -177 150t-173.5 -148t-57.5 -392.5z" />
<glyph unicode="1" d="M324 1168v111q199 25 358 107h191l-14 -295v-695l6 -201q0 -75 8 -89l138 -24v-87l-335 5l-320 -5v87l129 24l10 290v442l-17 330h-154z" />
<glyph unicode="2" d="M16 99q269 206 388 323q38 37 108 108t160 205.5t90 275.5q0 92 -58.5 149.5t-142 57.5t-152.5 -34t-88 -53l-9 -120l-94 -12q-13 131 -77 301q29 16 171 54q129 31 331 31.5t352 -111t150 -291.5q0 -175 -123 -311q-123 -135 -190 -187q-134 -102 -189 -140l-169 -113 l579 24l71 127l100 -27l-53 -183q-30 -103 -40 -178l-542 5l-535 -5z" />
<glyph unicode="3" d="M24 204l300 202l66 -66l-48 -92q24 -42 81.5 -77t164 -35t189 93t82.5 207.5t-70.5 175.5t-187.5 61l-96 -5q-45 0 -90 -16l-28 139q145 26 244 92.5t99 188.5q0 63 -41 104.5t-108 41.5t-107 -17.5t-62.5 -27t-36.5 -23.5v-95l-101 -20q-21 106 -60 185l-31 84 q14 10 141 49q115 31 314 31t327 -84.5t128 -238.5q0 -91 -67 -153.5t-219 -102.5l49 2q169 0 271.5 -105t103.5 -242q0 -206 -191 -348.5t-472 -142.5q-220 0 -345 75t-199 160z" />
<glyph unicode="4" d="M49 493q357 519 643 1001h188l19 -32q-130 -168 -319 -442q-136 -209 -291 -464h417v509l246 127l94 -63l-11 -256v-317h23q50 0 91 14l50 16l51 -51l-98 -157h-117v18l13 -290l116 -24v-87l-294 5l-373 -5v87l195 24l5 89q8 84 9 183h-589z" />
<glyph unicode="5" d="M71 274l276 169l61 -77l-56 -73q26 -52 89 -104.5t179.5 -52.5t188.5 71q75 68 75 197t-70.5 200.5t-209.5 71.5t-262 -104l-168 90l72 330l59 333l54 36l363 -7h148q114 0 279 33l41 -45l-83 -96q-42 -49 -77 -104l-570 -9l-77 -342q167 91 347 89q239 0 378.5 -116 t139.5 -332t-171.5 -339.5t-461.5 -123.5q-227 0 -349.5 84.5t-194.5 220.5z" />
<glyph unicode="6" d="M101 530q0 340 257 613.5t670 400.5l61 -125q-326 -139 -517 -406q-94 -136 -129 -286q62 62 116 92q112 56 250 56q216 0 341.5 -122t125.5 -329.5t-161.5 -331t-418.5 -123.5t-426 144.5t-169 416.5zM439 422.5q0 -133.5 79.5 -210t181 -76.5t163 72.5t61.5 190.5 t-71.5 201t-166 83t-171 -63.5t-76.5 -197z" />
<glyph unicode="7" d="M173 1037q7 17 23.5 74t23.5 85q28 99 36 164l466 -6l455 4l36 -66q-171 -261 -301 -602q-142 -376 -142 -714q-197 -30 -346 -112l-95 30q103 467 266 766t308 469q-133 13 -208 13l-90 -4q-134 0 -274 -24l-61 -112z" />
<glyph unicode="8" d="M101 350q0 127 81 225.5t236 119.5q-129 56 -193 145q-58 87 -58 171q0 167 152 271t372 104t351 -85.5t131 -235.5q0 -105 -69.5 -187.5t-223.5 -105.5q193 -47 279.5 -147t86.5 -229q0 -197 -161 -312t-413 -115t-411.5 103.5t-159.5 277.5zM394 363q0 -95 74 -161 t178.5 -66t171 55t66.5 131q0 122 -119 187q-58 31 -109 56.5t-84 42.5q-66 -26 -126 -89q-52 -61 -52 -156zM518 1061.5q0 -67.5 75 -120t150 -87.5q23 10 58.5 37.5t40.5 30.5q52 45 52 120t-61 125.5t-140 50.5t-127 -44.5t-48 -112z" />
<glyph unicode="9" d="M75 896q0 232 156 361t420.5 129t430.5 -149t166 -425q0 -317 -252 -594t-677 -410l-58 124q324 146 516 408q92 129 135 293q-61 -61 -122 -96q-105 -58 -251 -58q-192 0 -328 121.5t-136 295.5zM425.5 952.5q-0.5 -119.5 68.5 -200.5t166.5 -81t174.5 65 q77 73 77 197.5t-77 204.5t-180.5 80t-169.5 -73q-59 -73 -59.5 -192.5z" />
<glyph unicode=":" horiz-adv-x="672" d="M150 146.5q0 71.5 55.5 125.5t129.5 54t130 -53t56 -125.5t-53.5 -125.5t-130 -53t-133.5 52q-54 54 -54 125.5zM150 720q0 72 55.5 125.5t129.5 53.5t130 -53t56 -125t-53.5 -125.5t-130 -53.5t-133.5 52q-54 54 -54 126z" />
<glyph unicode=";" horiz-adv-x="672" d="M127 -333q37 110 53.5 178t16.5 136q12 124 12 280l171 20l164 26q0 -190 -70 -387t-213 -338zM150 720q0 72 55.5 125.5t129.5 53.5t130 -53t56 -125t-53.5 -125.5t-130 -53.5t-133.5 52q-54 54 -54 126z" />
<glyph unicode="&#x3c;" horiz-adv-x="1150" d="M91 401v157l969 425v-192l-717 -312l717 -312v-191z" />
<glyph unicode="=" horiz-adv-x="1150" d="M91 185v186h965v-186h-965zM91 587v187h965v-187h-965z" />
<glyph unicode="&#x3e;" horiz-adv-x="1150" d="M91 -24v191l716 312l-716 312v192l969 -425v-157z" />
<glyph unicode="?" horiz-adv-x="1030" d="M44 1307q38 17 162 48t265 31q248 0 375 -94.5t127 -224.5q0 -173 -125.5 -268t-319.5 -135l-31 -172l-169 -46l-77 309l30 26q21 16 43 28q161 19 232 90q73 68 73 141t-43.5 125.5t-115 52.5t-142 -30.5t-87.5 -49.5l5 -103l-100 -24q-35 139 -69 216zM195 143.5 q0 72.5 55.5 124t132.5 51.5t133.5 -51.5t56.5 -122.5t-55 -126q-56 -51 -133.5 -50.5t-133.5 51.5t-56 123.5z" />
<glyph unicode="@" horiz-adv-x="1150" d="M45 507.5q0 211.5 160.5 372.5t389 161t369.5 -126.5t141 -293t-93 -283.5t-196 -117q-40 0 -80.5 23.5t-57.5 86.5q-17 -31 -66.5 -68.5t-107.5 -37.5t-103 47q-42 47 -42 156t90.5 235.5t221.5 126.5q24 0 52 -23q24 -16 39 -66l14 61h120l-101 -387l-2 -25 q0 -34 37 -44q12 -4 22 -6q42 0 92.5 96.5t50.5 223.5t-113 222.5t-276 95.5t-278 -126.5t-115 -309t120 -304t265 -121.5q153 0 268 51q30 13 53 31l13 -82q-36 -36 -124.5 -69.5t-195.5 -33.5q-246 0 -406.5 161t-160.5 372.5zM493 422q0 -47 23 -72q24 -21 50 -21 q64 0 111.5 89t47.5 152q0 35 -12 85q-12 33 -33 33q-73 0 -133 -88q-54 -87 -54 -178z" />
<glyph unicode="A" horiz-adv-x="1526" d="M-14 -5v87l110 24q209 467 390 1003q33 101 68 202q79 14 143 35l147 40l125 -32q177 -590 457 -1248l115 -24v-87l-317 5l-318 -5v89l121 22l-121 396h-441l-115 -396l115 -22v-89l-238 5zM518 659h331l-167 512z" />
<glyph unicode="B" horiz-adv-x="1526" d="M56 -5v87l120 24q14 28 14 129l5 199v485l-5 191q0 99 -14 136l-120 25v89l315 -6l535 11q211 0 316.5 -71.5t105.5 -226.5q0 -99 -69 -184.5t-262 -108.5q242 0 356.5 -84.5t114.5 -229.5q0 -230 -164 -351t-455 -121l-478 12zM547 823l128 -6q280 0 280 206 q0 164 -230 164l-178 -12v-352zM549 190l141 -23q61 -10 133 -10q108 0 190 77.5t82 185.5q0 239 -340 239l-206 -11v-458z" />
<glyph unicode="C" horiz-adv-x="1491" d="M78 668q0 307 239 512.5t603 205.5q165 0 279.5 -24t214.5 -58q-30 -73 -56 -166q-17 -75 -18 -162h-96l-20 115q-157 92 -342.5 92t-307 -125.5t-121.5 -346t140.5 -361.5t365.5 -141q119 0 216 45.5t197 120.5l103 -127q-291 -281 -689 -281q-303 0 -505.5 197 t-202.5 504z" />
<glyph unicode="D" horiz-adv-x="1704" d="M75 -5v87l120 24q14 28 14 129l5 199v486l-5 197q0 103 -14 131l-120 23v89l315 -6l548 11q331 0 508 -161.5t177 -473.5t-218 -527t-506 -215l-509 12zM572 204l115 -26q81 -9 155.5 -9t152 36t137.5 111q119 147 119 375.5t-115 361t-305 132.5q-75 0 -129 -8 q-51 0 -130 -28v-945z" />
<glyph unicode="E" d="M56 -5v87l120 24q14 48 14 129l5 199v486l-5 197q0 97 -14 131l-120 23v89l315 -6h814l26 -141q24 -97 39 -138l-89 -36l-61 94q-16 10 -148.5 23.5t-304.5 13.5h-89l-9 -351l256 5q107 0 129 11l35 96h87l-5 -190l5 -190h-87l-35 96l-122 7l-263 5v-100l9 -379h127 q181 0 317 20t161 30l64 112l94 -35l-77 -307h-873z" />
<glyph unicode="F" horiz-adv-x="1242" d="M56 -5v87l120 24q14 48 14 129l5 199v486l-5 197q0 97 -14 131l-120 23v89l315 -6h786q31 -191 67 -279l-91 -36l-59 94q-59 37 -455 37h-61l-9 -351v-35l9 -1l263 7l131 8l33 94h89l-6 -188l6 -188h-89l-33 94l-122 9l-272 7h-9v-192l7 -199q0 -68 17 -129l163 -24v-87 l-365 5z" />
<glyph unicode="G" horiz-adv-x="1633" d="M58 670q0 304 252.5 510t616.5 206q167 0 281 -26q120 -23 209 -63q-26 -91 -40 -162l-28 -159l-89 5l-21 117q-50 28 -165 63q-90 22 -171 22h-7q-220 0 -342 -127t-122 -363t125 -379t341 -143q97 0 138 9q71 17 107 38v164q0 70 -7 110l-5 106l-134 29v88l288 -6 l291 6v-89l-84 -28l-9 -342l87 -71q-313 -219 -679 -219h-3q-369 1 -599.5 200.5t-230.5 503.5z" />
<glyph unicode="H" horiz-adv-x="1633" d="M56 -5v87l120 24q14 48 14 129l5 199v486l-5 197q0 97 -14 131l-120 23v89l314 -6l317 6v-89l-121 -23q-13 -36 -13 -131l-6 -197v-101h539l2 101l-7 197q0 90 -13 131l-122 23v89l316 -6l315 6v-89l-120 -23l-14 -131l-5 -197v-486l5 -199q0 -90 14 -129l120 -24v-87 l-315 5l-316 -5v87l122 24q13 43 13 120.5t7 207.5v211h-539l-2 -211l6 -199q0 -99 13 -129l121 -24v-87l-317 5z" />
<glyph unicode="I" horiz-adv-x="780" d="M75 -5v87l120 24q14 48 14 129l5 199v486l-5 197q0 97 -14 131l-120 23v89l315 -6l318 6v-89l-121 -23q-14 -39 -14 -131l-5 -197v-486l5 -199q0 -97 14 -129l121 -24v-87l-318 5z" />
<glyph unicode="J" horiz-adv-x="711" d="M-110 -256q117 75 201.5 197t84.5 350v629l-5 197q0 97 -14 131l-120 23v89l315 -6l317 6v-89l-120 -23q-16 -45 -16 -131l-3 -197v-697q0 -228 -166.5 -372t-400.5 -226z" />
<glyph unicode="K" horiz-adv-x="1526" d="M56 -5v87l120 24q14 48 14 129l5 199v486l-5 197q0 97 -14 131l-120 23v89l314 -6l317 6v-89l-121 -23q-15 -42 -15 -131l-4 -197v-103l504 429l-71 25v89l263 -6l259 6v-89l-97 -21l-624 -438l336 -350q162 -167 377 -352l62 -26v-91l-210 -7l-213 -17l-63 75l-523 589 v-199l4 -199q0 -99 15 -129l121 -24v-87l-317 5z" />
<glyph unicode="L" horiz-adv-x="1242" d="M54 -5v87l120 24q14 48 14 129l5 199v486l-5 197q0 94 -14 131l-120 23v89l316 -6l357 6v-89l-155 -23l-16 -131l-7 -197v-361l9 -379h125q169 0 293 20t148 30l65 113l94 -38l-49 -153q-22 -93 -30 -152h-834z" />
<glyph unicode="M" horiz-adv-x="1953" d="M56 -5v87l117 24q17 48 17 194l12 671l-7 167q0 105 -9 110l-95 23v89l333 -6h221l329 -965l333 965h211l352 6v-89l-120 -23l-12 -131l-7 -197v-486q0 -109 8 -199q0 -101 16 -129l143 -24v-87l-329 5l-305 -5v87l123 24q13 32 13 129l7 199l-7 685l-398 -1124h-212 l-391 1122l-5 -416q0 -163 4 -322q5 -243 20 -273l117 -24v-87l-240 5z" />
<glyph unicode="N" horiz-adv-x="1563" d="M64 -5v87l122 24q13 43 13 120.5t7 207.5v486l-7 197q0 90 -13 131l-122 23v89l295 -6h153q108 -169 297 -443.5t348 -516.5v526l-5 197q0 103 -14 131l-122 23v89l242 -6l239 6v-89l-122 -23q-14 -56 -14 -131l-5 -197v-941h-288l-665 976v-521l3 -199q0 -92 16 -129 l125 -24v-87l-244 5z" />
<glyph unicode="O" horiz-adv-x="1741" d="M78 677q0 328 218 518.5t579 190.5t573.5 -190.5t212.5 -517t-217.5 -519t-577.5 -192.5t-574 191t-214 519zM451 677q0 -224 117 -371t300 -147t301.5 147t118.5 372t-116.5 370.5t-302.5 145.5t-302 -146.5t-116 -370.5z" />
<glyph unicode="P" horiz-adv-x="1420" d="M73 -5v87l120 24q14 48 14 129l6 199v486l-6 197q0 94 -14 131l-120 23v89l316 -6l535 11q221 0 340.5 -96t119.5 -286q0 -219 -158 -350t-416 -131q-34 0 -62 1.5t-37 1.5l-96 14l54 173l105 -9q110 0 176 68q63 71 63 190t-72.5 181.5t-199.5 62.5l-91 -5 q-39 -4 -84 -19v-727l7 -199q0 -78 20 -129l169 -24v-87l-373 5z" />
<glyph unicode="Q" horiz-adv-x="1739" d="M78 692q0 313 218 504q218 190 579 190t573.5 -190t212.5 -517t-221 -522q-214 -190 -558 -190q31 -12 157 -49q241 -59 491 -82l72 73l82 -59q-66 -97 -124 -207l-40 -84q-516 143 -835.5 302.5t-438.5 342.5q-168 174 -168 488zM451 677q0 -224 117 -371t300 -147 t301.5 147t118.5 372t-116.5 370.5t-302.5 145.5t-302 -146.5t-116 -370.5z" />
<glyph unicode="R" horiz-adv-x="1491" d="M54 -5v87l120 24q14 48 14 129l5 199v486l-5 197q0 94 -14 131l-120 23v89l316 -6l508 11q475 0 475 -358q0 -117 -87.5 -217t-263.5 -135l469 -547l65 -26l1 -87l-191 -5l-185 -16l-44 -7q-181 255 -272 378l-197 262h-101v-173l6 -199q0 -99 13 -129l121 -24v-87 l-317 5zM549 784l124 -10q305 0 305 226q0 103 -65.5 144t-201.5 41h-40q-19 0 -55.5 -1.5t-66.5 -12.5v-387z" />
<glyph unicode="S" horiz-adv-x="1314" d="M40 96l131 343l96 -22v-122q43 -27 158 -81q130 -55 241 -55t179 58t68 143.5t-75 120.5q-93 39 -281.5 83t-326.5 145q-139 103 -139 257q0 185 162 302.5t413 117.5q169 0 309 -24.5t254 -59.5l-63 -164q-28 -78 -52 -162l-86 17v93q-19 30 -125 68q-98 40 -215 40 q-235 0 -235 -157q0 -73 100 -106l266 -75q253 -70 355 -178t102 -274q0 -195 -185.5 -316t-473.5 -121q-317 0 -577 129z" />
<glyph unicode="T" horiz-adv-x="1352" d="M-24 1035l41 157q25 95 37 162h1245q8 -62 34 -162l44 -157l-94 -33l-70 131q-16 9 -114.5 22t-233.5 13l-14 -195v-539l8 -199q0 -97 14 -129l143 -24v-87l-341 5l-342 -5v87l145 24q3 9 5.5 36t9.5 93l5 199v539l-12 195q-153 0 -235 -14q-96 -10 -113 -21l-68 -131z " />
<glyph unicode="U" horiz-adv-x="1563" d="M54 1271v89l316 -6l324 6v-89l-128 -23q-15 -42 -15 -131l-4 -197v-357q0 -207 66.5 -305.5t226.5 -98.5q237 0 304 189q20 58 20 142v179l-8 389q0 148 -11 190l-131 23v89l253 -6l242 6v-89l-118 -23q-16 -45 -16 -190l-3 -389v-153q0 -261 -160.5 -405t-438.5 -144 t-429 122t-151 338v493l-5 197q0 94 -14 131z" />
<glyph unicode="V" horiz-adv-x="1491" d="M-17 1271v89l319 -6l303 6v-89l-105 -23q138 -487 319 -985q96 274 166 492l157 493l-96 23v89l237 -6l228 6v-89l-129 -23q-72 -153 -260 -633q-102 -271 -224 -636h-316q-241 736 -483 1269z" />
<glyph unicode="W" horiz-adv-x="2025" d="M-17 1271v89l305 -6l292 6v-89l-95 -23q45 -251 84 -401q74 -284 132 -479q37 132 56.5 210.5t72.5 286.5l116 495l135 -6l132 6q60 -294 118 -519.5t144 -474.5l113 443q24 110 50 225t47 214l-95 23v89l231 -6l222 6v-89l-122 -23q-108 -298 -208 -631l-177 -638h-290 l-256 955l-129 -479l-110 -476h-289q-92 361 -171 636q-89 328 -190 635z" />
<glyph unicode="X" horiz-adv-x="1491" d="M-16 -5v87l136 21q101 113 241 282l226 281l-434 582l-122 23v89l325 -6l310 6v-89l-77 -23l215 -350q114 147 144 194.5t94 155.5l-61 23v89l243 -6l231 6v-89l-144 -23l-405 -495l481 -647l122 -24v-87l-319 5l-317 -5v87l77 24l-262 412q-30 -37 -148 -199l-130 -213 l80 -24v-87l-253 5z" />
<glyph unicode="Y" horiz-adv-x="1420" d="M-19 1271v89l312 -6l300 6v-89l-89 -23l284 -546l286 546l-89 23v89l233 -6l222 6v-89l-117 -23l-439 -682v-132q0 -109 8 -199q0 -90 13 -129l143 -24v-87l-340 5l-340 -5v87l143 24q12 40 12 129l9 199v134l-433 680z" />
<glyph unicode="Z" d="M5 49q330 414 783 1114l-230 10q-177 0 -250.5 -13t-82.5 -17l-75 -125l-89 38l71 298h1125l29 -50q-232 -303 -348.5 -475.5t-170.5 -254t-124 -185t-131 -196.5l126 -10l129 -3q150 0 250 16q108 16 165 31l66 123l98 -29l-46 -162l-35 -159h-1232z" />
<glyph unicode="[" horiz-adv-x="850" d="M254 -479v1840l295 -7l242 7v-90h9l-234 -37v-1586l234 -37h-9v-90l-242 7z" />
<glyph unicode="\" horiz-adv-x="1171" d="M37 1415l275 -22l819 -1457l-275 22z" />
<glyph unicode="]" horiz-adv-x="850" d="M58 -389l235 37v1586l-235 37v90l249 -7l298 7v-1840l-298 7l-249 -7v90z" />
<glyph unicode="^" horiz-adv-x="1150" d="M117 598l369 755h173l371 -755h-202l-255 552l-254 -552h-202z" />
<glyph unicode="_" horiz-adv-x="958" d="M0 -424h959v-92h-959v92z" />
<glyph unicode="`" horiz-adv-x="533" d="M0 1419l120 59q70 32 122 73q80 -54 143 -129q71 -73 120 -198l-118 -74q-98 112 -185 168q-77 50 -202 101z" />
<glyph unicode="a" horiz-adv-x="1242" d="M42 267q0 181 191.5 292.5t528.5 111.5q0 148 -35 197t-139.5 49t-164.5 -17q-73 -20 -116 -41l-7 -104l-87 -23l-114 261q21 7 87.5 25.5t125.5 36.5q151 31 339.5 31t308 -83.5t119.5 -251.5v-348q0 -153 14 -206.5t26 -90.5l92 -24v-87l-235 5q-92 0 -153 -7l-11 63 l-5 153q-58 -139 -176 -192q-122 -48 -225 -48q-166 0 -265 84.5t-99 213.5zM394 314q0 -52 35 -89q38 -35 106 -35q101 0 160 82q67 91 67 253h-32q-155 0 -245.5 -62t-90.5 -149z" />
<glyph unicode="b" horiz-adv-x="1314" d="M3 1382v89q152 9 344 56h139l-12 -281v-296q127 136 324 136t326 -139.5t129 -382t-165 -418.5q-170 -176 -417 -176q-70 0 -150 10q-160 20 -195 20h-28l-218 -5l68 113l12 408v540l-8 302zM476 178q93 -49 190 -49t167 109t70 266.5t-67 259.5t-167 102 q-193 0 -193 -368v-320z" />
<glyph unicode="c" horiz-adv-x="1171" d="M70 483q0 267 196 435t494 168q120 0 188 -18q116 -29 152 -47l-47 -137q-17 -53 -35 -135l-92 14l-9 91q-26 23 -82 43t-127 20q-141 0 -214.5 -94t-73.5 -261.5t96 -269.5t247 -102q92 0 172.5 43.5t110.5 69.5l96 -110q-82 -89 -179.5 -139t-168.5 -67t-149 -17 q-258 0 -416.5 139.5t-158.5 373.5z" />
<glyph unicode="d" horiz-adv-x="1314" d="M59 479q0 265 180.5 436t431.5 171q51 0 89 -11q47 -5 78 -20l-10 303l-145 24v89q152 9 344 56h141l-14 -281v-857l12 -283q28 0 58 -10l59 -14v-87l-173 5h-42l-209 -7l4 159q-64 -94 -154 -138t-179 -44q-211 0 -341 142t-130 367zM410 546q0 -163 68.5 -259.5 t169.5 -96.5q190 0 190 368v319l-75 35q-44 15 -97 15h-7q-120 0 -184.5 -109t-64.5 -272z" />
<glyph unicode="e" horiz-adv-x="1242" d="M70 497q0 244 172.5 416.5t445.5 172.5q220 0 358.5 -103t138.5 -315l-5 -98l-744 3q0 -183 76 -283t262 -100q112 0 197 49.5t132 102.5l112 -105q-75 -108 -227.5 -187.5t-330.5 -79.5q-263 0 -425 141.5t-162 385.5zM443 713h49q24 0 59 -4l68 2q111 0 242 21v45 q0 73 -49 117.5t-125 44.5q-117 0 -187 -90q-36 -49 -57 -136z" />
<glyph unicode="f" horiz-adv-x="780" d="M42 912v87l131 57v61q0 188 146 308.5t352 120.5q193 0 274 -44l-110 -291l-91 20v102l-42 21q-26 10 -87 10l-1 1q-60 0 -94 -50t-34 -151v-108l243 5l-61 -156l-182 3v-512q0 -105 9 -201l7 -89l150 -24v-87l-323 5l-285 -5v87l122 24l7 290v516h-131z" />
<glyph unicode="g" horiz-adv-x="1242" d="M44 -275q0 54 26 90.5t59 65.5l166 -99q0 -52 94 -109.5t256 -57.5q78 0 145 36q70 33 69 96q0 75 -132 117q-64 17 -155 17t-253 -29q-16 37 -84.5 108t-77.5 71l59 128q47 115 63 174q-209 107 -209 338q0 190 150.5 302.5t372.5 112.5q56 0 95 -7l210 -31 q96 -12 312 -13l3 -96l-77 -13l-116 -13q96 -98 96 -244q0 -180 -150 -288.5t-387 -108.5q-89 0 -140 12l-12 -38q-33 -84 -33 -119l47 12q56 21 197 21q246 0 396.5 -75t150.5 -252.5t-188 -289t-422.5 -111.5t-382.5 87t-148 206zM396 674q0 -109 54.5 -177t145 -68 t142.5 66t52 180q0 113 -51 184q-52 68 -142.5 68t-148.5 -69q-52 -75 -52 -184z" />
<glyph unicode="h" horiz-adv-x="1314" d="M7 1382v89q160 10 343 56h143l-14 -281v-326q158 166 358 166q152 0 234.5 -92.5t82.5 -259.5v-338l12 -290l117 -24v-87l-286 5l-160 -5v87l3 24v483q0 138 -33 207.5t-130.5 69.5t-147.5 -86t-50 -212v-172l13 -290l115 -24v-87l-286 5l-290 -5v87l121 24l8 290v660 l-8 302z" />
<glyph unicode="i" horiz-adv-x="636" d="M7 941v89q155 9 338 56h140l-13 -281v-409l11 -290l124 -24v-87l-293 5l-283 -5v87l119 24l7 290v219l-9 302zM139 1368.5q0 69.5 53.5 124.5t123 55t123.5 -54t54 -123t-53 -123t-122 -54t-126 52q-53 53 -53 122.5z" />
<glyph unicode="j" horiz-adv-x="637" d="M-54 -457q127 101 170.5 198t43.5 357v517l-8 302l-145 24v89q104 6 160 16t180 40h139l-12 -281v-500l7 -237l-3 -183q0 -220 -459 -451zM141 1368.5q0 69.5 53.5 124.5t123 55t123.5 -54t54 -123t-53 -123t-122 -54t-127 52q-52 53 -52 122.5z" />
<glyph unicode="k" horiz-adv-x="1279" d="M12 1382v89q166 11 337 56h141l-14 -281v-578l193 149q92 71 157 135l-71 22v87l223 -5l223 5v-87l-101 -24l-371 -298q210 -224 284 -300q143 -139 301 -274v-81l-362 -27q-120 145 -232 267l-244 268v-109l10 -290l121 -24v-87l-288 5l-286 -5v87l120 24l7 290v660 l-8 302z" />
<glyph unicode="l" horiz-adv-x="636" d="M10 1382v89q166 11 337 56h139l-12 -281v-850l11 -290l120 -24v-87l-288 5l-286 -5v87l121 24l7 290v660l-9 302z" />
<glyph unicode="m" horiz-adv-x="2025" d="M16 941v89q146 9 336 56h134l-5 -173q63 68 157 120.5t203 52.5t186.5 -51.5t115.5 -135.5q35 47 143 119q111 68 252.5 68t229 -92.5t87.5 -259.5v-338l10 -290l117 -24v-87l-284 5l-162 -5v87l5 24v474q0 150 -31.5 218t-136 68t-155 -92t-50.5 -244v-134l12 -290 l120 -24v-87l-289 5l-286 -5v87l120 24l4 89q7 75 7 201v184q0 146 -32.5 216t-139 70t-156 -97.5t-49.5 -264.5v-108l13 -290l123 -24v-87l-291 5l-284 -5v87l119 24l8 290v219l-10 302z" />
<glyph unicode="n" horiz-adv-x="1314" d="M7 941v89q149 11 342 56h136l-9 -178q143 178 359 178q152 0 234.5 -92.5t82.5 -259.5v-338l12 -290l119 -24v-87l-288 5l-160 -5v87l3 24v483q0 138 -33 207.5t-130.5 69.5t-147 -86t-49.5 -212v-172l12 -290l117 -24v-87l-288 5l-288 -5v87l121 24l7 290v219l-9 302z " />
<glyph unicode="o" d="M59 525.5q0 248.5 176 404.5t451 156t439.5 -154.5t164.5 -401t-177 -403.5t-450 -157t-438.5 153.5t-165.5 402zM410 527q0 -177 72 -287.5t196 -110.5t192.5 108t68.5 289.5t-70.5 291t-196 109.5t-194.5 -108q-68 -115 -68 -292z" />
<glyph unicode="p" horiz-adv-x="1314" d="M7 941v89q149 11 342 56h134l-9 -155q144 155 317 155q206 0 334 -139.5t128 -379t-167 -418.5t-403 -179q-58 0 -115 11q-63 5 -94 19v-139l9 -290l146 -24v-87l-312 5l-286 -5v87l121 24l8 290v754l-8 302zM476 180q40 -24 79 -37.5t107 -13.5q105 0 173 107t68 267.5 t-68 261.5t-164.5 101t-147.5 -89q-47 -96 -47 -259v-338z" />
<glyph unicode="q" horiz-adv-x="1314" d="M59 458q0 291 183 459.5t436 168.5l187 -11l153 -15l232 -4v-87l-84 -24q-12 -2 -12 -478v-606l9 -290l120 -24v-87l-288 5l-313 -5v87l142 24l6 91q8 82 8 178v21v271q-58 -73 -139.5 -117.5t-170.5 -44.5q-202 0 -335.5 137t-133.5 351zM410 558.5q0 -160.5 66 -264.5 t172 -104q190 0 190 390v295l-61 30q-43 22 -106 22h-5q-119 0 -188 -103q-68 -105 -68 -265.5z" />
<glyph unicode="r" horiz-adv-x="922" d="M10 941v89q161 13 312 56h124l-9 -270q61 138 166 204t207 66q94 0 135 -31l-61 -166q-20 -57 -35 -124l-80 12q0 75 -18 82l-40 7q-108 0 -173.5 -114t-65.5 -281v-167q0 -39 7 -109l7 -89l154 -24v-87l-326 5l-283 -5v87l121 24l3 89l4 201v219l-9 302z" />
<glyph unicode="s" horiz-adv-x="1099" d="M0 89l94 127l82 131l80 -38l-12 -91q120 -79 272 -79q78 0 135 32.5t57 90.5t-67.5 92.5t-201.5 66.5t-247.5 102.5t-113.5 208.5q0 167 152 260.5t371 93.5q112 0 213 -20t159 -46l-91 -260l-92 19v75q-40 19 -118.5 41t-146.5 22t-107 -28q-37 -23 -37 -68 q0 -47 58 -78q46 -23 225 -72q193 -47 276 -125.5t83 -200.5q0 -159 -147 -267.5t-367 -108.5q-275 0 -509 120z" />
<glyph unicode="t" horiz-adv-x="817" d="M42 908v94l132 56v204l312 68v-274l267 4l-56 -154l-211 2v-526q0 -99 28 -148q28 -44 91 -44q32 0 57 16l58 36l84 -103l-112 -94q-91 -75 -228 -75t-213.5 73.5t-76.5 202.5v662h-132z" />
<glyph unicode="u" horiz-adv-x="1314" d="M7 941v89q86 0 173 19q73 10 172 37h134l-10 -354v-270q0 -129 44.5 -200.5t129.5 -71.5t135 86.5t50 227.5v167l-11 246l-139 24v89q130 0 342 56h137l-12 -364v-255l11 -364l120 -21v-87l-215 5l-214 -5l11 176q-66 -92 -168.5 -146.5t-204.5 -54.5q-150 0 -241.5 87.5 t-91.5 233.5v380l-9 246z" />
<glyph unicode="v" horiz-adv-x="1207" d="M-3 974v87l273 -5l274 5v-85l-108 -24q43 -150 111 -356t128 -420l219 776l-96 22v87l206 -5l207 5v-85l-76 -24q-112 -241 -201 -490l-172 -485l-155 7l-161 -7q-83 260 -151 433.5t-99 255.5t-112 286z" />
<glyph unicode="w" horiz-adv-x="1809" d="M-3 974v87l270 -5l270 5v-85l-86 -24l176 -734l229 843h228l244 -838q54 199 68 259t25 105l87 365l-96 22v87l197 -5l198 5v-85l-71 -30q-80 -225 -164 -482l-148 -487l-155 6h-38l-119 -4l-200 669l-201 -671l-153 6h-83t-72 -4q-9 28 -63.5 206t-90.5 279 q-75 244 -108 335.5t-54 152.5z" />
<glyph unicode="x" horiz-adv-x="1207" d="M-19 -5v92l103 19l172 213q84 105 164 216l-307 417l-123 22v87l284 -5l285 5v-87l-66 -22l178 -267l171 268l-56 20v88l197 -5l200 5v-85l-118 -24l-159 -190l-144 -190l343 -464l124 -19v-94l-291 5l-293 -5v89l70 24l-203 312l-102 -155q-41 -67 -91 -159l82 -22v-89 l-209 5z" />
<glyph unicode="y" horiz-adv-x="1171" d="M-78 -537l52 161l31 165l94 -7l14 -94l46 -16l71 -8q124 0 220 108t120 184l16 39h-135l-184 483q-54 142 -192 474l-85 22v87l275 -5l274 5v-85l-98 -23l235 -737l211 737l-99 21v87l202 -5l202 5v-85l-54 -24q-131 -275 -225 -520.5t-182 -496t-252 -377t-376 -126.5 q-42 0 -76 6q-65 13 -105 25z" />
<glyph unicode="z" horiz-adv-x="1136" d="M26 0v89l605 819l-134 9q-100 0 -166 -11q-69 0 -108 -12l-68 -141l-85 28l29 139q3 14 11.5 68t9.5 73l377 -3h573v-78l-598 -821l142 -7q108 0 195 16.5t151 28.5l61 125l89 -29l-33 -148l-22 -150l-429 5h-600z" />
<glyph unicode="{" horiz-adv-x="850" d="M138 441q49 10 81 66t32 147v427q0 134 64.5 207t280.5 73h98v-66q-45 0 -93 -49q-42 -52 -42 -143v-392q0 -127 -43 -188q-38 -59 -119 -82q162 -47 162 -270v-392q0 -92 40.5 -139.5t94.5 -52.5v-66h-98q-216 0 -280.5 72t-64.5 208v427q0 94 -30 143q-29 58 -83 70z " />
<glyph unicode="|" horiz-adv-x="425" d="M113 -31v1558h206v-1558h-206z" />
<glyph unicode="}" horiz-adv-x="850" d="M159 1295l1 66h100q214 0 277 -72t63 -208v-427q0 -173 109 -213q-47 -10 -78 -65t-31 -148v-427q0 -134 -63 -207t-277 -73h-100v66q47 0 78.5 37.5t42 69.5t10.5 85v392q0 125 41 186t119 84q-75 21 -118 82q-42 64 -42 188v392q0 96 -39 141.5t-93 50.5z" />
<glyph unicode="~" horiz-adv-x="1150" d="M132 478q26 59 89 110.5t153.5 51.5t205 -64t188 -64t109.5 32q35 35 73 104l70 -153q-31 -63 -93 -113.5t-151 -50.5t-205 64.5t-210.5 64.5t-158.5 -136z" />
<glyph unicode="&#xa1;" horiz-adv-x="1211" d="M21 691.5q0 23.5 17 35.5l16 5l28 -5l9 -7l7 -23q6 -6 -16 -31l-16 -9l-28 9q-17 2 -17 25.5zM73 776q-6 26 28 43q21 0 31 -9l16 -26l-3 -17l-13 -19q-29 -14 -43 0zM85 573q-5 45 44 109l49 62l71 58q68 51 133 64l24 2q42 0 72 -47l12 -54q5 -35 8 -40l-10 -45 l-44 -70q-9 -12 -15 -16l-12 -16l-21 -34q-7 -10 -7 -21v-70q0 -7 12 -35l28 -38q12 -10 35 -40l26 -33q8 -11 22 -79l16 -110q0 -54 -14 -83.5t-56 -43.5h-19q-40 0 -89 38l-69 75l-20 35l-12 39l-26 115l-5 47q-4 33 -28 69zM133 856.5q0 20.5 19 39.5l14 5q37 5 57 -40 q0 -21 -24 -40l-16 -7q-17 0 -31 12q-19 10 -19 30.5zM218 922l2 26l22 23l18 7q26 0 40 -12l12 -13l10 -19q5 -33 -27 -50l-18 -9q-17 -9 -33.5 7.5t-25.5 39.5zM326 1018q0 49 17 61l32 19q17 0 50 -24q16 -16 33 -74v-22q0 -57 -48 -73q-21 -3 -40 10q-23 12 -41 51z M685 98v50l17 110q3 23 21 54l68 78l14 21l9 25l9 22l3 37q0 33 -9 47l-12 30l-73 90l-12 26l-4 32v17l4 25l16 57q5 17 24 35q21 12 45 12l25 -1q31 -4 80 -32q51 -24 97 -66q48 -34 84 -85q35 -44 35 -88l-2 -21l-3 -17l-101 -148l-20 -37l-12 -76l-28 -115l-1 -20l-2 -19 q0 -8 -14 -28l-33 -42l-35 -36l-42 -26q-9 -7 -36 -12l-41 -6q-42 7 -59 46l-9 38zM756 969l2 44q0 34 15 48t32 25q49 16 75 -31l9 -51l-5 -38q0 -17 -26 -47q-16 -23 -34 -23q-68 0 -68 73zM896 901v30q0 19 18 33t36 14l24 -9q9 -5 15 -19t6 -30.5t-21 -35.5 q-21 -12 -38 -13l-21 7q-12 3 -19 23zM992 840.5q0 11.5 3 25.5q14 28 47 33l18 -7q17 -5 22 -40q0 -30 -55 -38l-14 5q-21 10 -21 21.5zM1067 762v17q2 5 3.5 9.5t6.5 13.5q10 10 35 15l12 -7q21 -12 15 -38t-41 -31q-27 5 -31 21zM1117 688q0 16 12 35l28 9l20 -5 q9 -7 10 -14l5 -25l-9 -13l-6 -13l-32 -8l-12 5q-16 14 -16 29z" />
<glyph unicode="&#xa2;" horiz-adv-x="1199" d="M21 807q0 30 37 35q14 0 27 -11l7 -34q0 -16 -19 -30h-15q-30 0 -37 40zM61 682q0 47 103 132q23 20 84.5 52.5t114.5 46.5q56 5 81 -1q33 -12 44 -58l10 -56q0 -72 -47 -110l-29 -29q-33 -28 -56.5 -59.5t-23.5 -77.5t31 -98l28 -42l16 -30l8 -47v-31q0 -16 4 -39 q0 -68 -23.5 -129t-76.5 -61q-26 0 -52 12.5t-47 38.5l-59 90q-5 5 -11 35v44l-12 117l4 47l-4 31q0 17 -9 38l-69 161zM86 885.5q0 19.5 19 29.5l20 4q16 -7 27 -20l8 -21q0 -17 -22 -33q-27 -6 -42 7q-10 14 -10 33.5zM160 946.5q0 24.5 26 38.5l13 3q19 0 33 -13t14 -34 t-26 -36l-20 -6q-12 -5 -26 9t-14 38.5zM253 1000q0 32 31 44l23 7l17 -7q30 -19 30 -49.5t-28 -46.5l-23 -2q-24 -5 -38 13zM371 1033q0 43 16 76q17 33 52 38q25 0 45 -36t20 -74.5t-8 -50t-29 -33.5l-28 -7q-26 -5 -49 25q-19 33 -19 62zM697 657l4 40l14 35q7 17 21 26 l27 9q26 0 47 -31l13 -39q7 -16 7 -39t-4 -31l-12 -33q-11 -26 -46 -26q-71 0 -71 89zM704 417l7 59q5 63 84 63q75 0 188 -60q61 -28 107 -73t46 -106l-3 -12l-31 -67l-51 -132q-3 -10 -3 -38l3 -44l-10 -145l-6 -35q-13 -45 -66 -109q-35 -43 -98 -53q-35 0 -62 35l-30 77 l-5 35l-2 47v61q0 24 12 56l35 55l30 61l9 44q0 56 -21 84l-18 24l-68 61l-31 37q-9 5 -14 33zM844 612q0 23 13.5 42t38.5 19l19 -5q31 -10 31 -38.5t-12 -45.5q-14 -14 -35 -19l-22 3q-14 0 -23 16zM953 559.5q0 15.5 13 33.5l34 17l16 -3q26 -6 26 -36.5t-42 -49.5l-19 7 l-21 9q-7 7 -7 22.5zM1039 498q0 34 40 41h16q13 -9 22 -35q0 -12 -10.5 -26t-27.5 -14h-16q-14 0 -19 14zM1105 426q0 27 35 38l19 -4q16 -5 21 -31q0 -17 -12 -30l-28 -12l-16 3q-19 9 -19 36z" />
<glyph unicode="&#xa3;" horiz-adv-x="1199" d="M21 429q0 24 37 35q31 0 36 -42q0 -28 -36 -35q-31 0 -37 42zM61 300q0 47 64 99l61 52l74 47l78 30q5 3 35 9l33 2q66 0 82 -63l10 -59q5 -33 -19 -71.5t-57 -63.5l-33 -29l-26 -32q-7 -5 -16 -43q0 -21 -5 -42q0 -40 31 -91l28 -42l16 -31l7 -42l5 -71 q0 -75 -23 -131.5t-77 -62.5q-19 0 -49 11.5t-50 41.5l-35 52l-24 42q-10 24 -11 75l-12 120l4 44l-4 31q0 12 -9 42l-69 164zM85 504l4 19q7 11 16 16h20q35 -9 35 -41q0 -17 -22 -34h-13q-19 0 -31 12zM162 565.5q-2 27.5 24 41.5l13 3q39 0 47 -49q0 -24 -26 -33l-20 -7 q-5 -3 -24 7q-12 10 -14 37.5zM253 620q0 24 31 48l23 5q17 0 31 -19q37 -49 -12 -86l-23 -3q-45 0 -50 55zM371 659q0 99 68 108q27 0 44 -35q21 -33 21 -76.5t-20 -65.5t-43 -22q-61 0 -70 91zM697 960l4 44l14 31q17 30 48 35q26 0 47 -31l13 -39q7 -16 7 -36.5t-4 -32.5 l-12 -35q-12 -25 -48 -25t-49.5 22t-19.5 67zM704 723l7 56q5 61 84 61q12 0 47 -9l61 -17l63 -28q23 -9 47 -28l28 -21l38 -33q58 -47 57 -97l-3 -21l-31 -58l-39 -103l-12 -38l-3 -35l3 -45l-10 -145l-6 -30q-24 -64 -46.5 -89.5t-40.5 -39.5q-28 -30 -73.5 -32t-67.5 36 l-14 35l-19 59v12l-2 49v59q0 21 12 58l35 59l30 56q9 31 9 46q0 71 -37 106l-70 61l-31 38l-11 30zM844 919q0 21 14 38q16 14 38 16l19 -4q31 -10 31 -49t-47 -54l-22 5q-17 0 -25 16zM953 865q0 35 47 50l16 -3q26 -6 26 -40t-42 -46l-19 2q-23 5 -28 37zM1039 802 q0 33 40 40l16 -2q22 -13 22 -33q0 -30 -38 -40h-16q-12 0 -19 12zM1102 711q0 28 24 45l14 11l19 -5q16 -6 21 -30q0 -17 -12 -31l-28 -13q-32 8 -38 23z" />
<glyph unicode="&#xa4;" horiz-adv-x="970" d="M21 573q5 51 14 67l10 38l21 37l101 116l35 34l25 27q12 16 19 34l63 162l6 17q19 14 48 21l66 9h45l122 -33q59 -17 109.5 -53t50.5 -83q0 -24 -15 -40l-35 -42q-28 -30 -61 -44l-49 -7l-75 7l-45 -7q-42 0 -79 -43q-30 -42 -40 -86l-14 -45l-5 -21q0 -9 -7 -23l-70 -82 q-23 -31 -62 -52l-61 -30l-35 -5l-25 5q-28 5 -43 44q-14 44 -14 78zM148 -136l5 23l30 68l99 108l23 22q3 3 26 9l16 9l24 5q16 0 25 5l61 16q17 5 38 26l28 37l19 33v179q0 12 11.5 24.5t16.5 19.5t19 16l38 38q23 17 42 17t37 -12q71 -37 112 -190q19 -68 19 -129v-29 q0 -30 -6 -46q-2 -24 -33 -47l-69 -21l-102 -42l-29 -17l-30 -23l-28 -36l-89 -80l-43 -30l-33 -16l-32 -10l-34 -5l-37 -4l-42 5q-66 9 -82 77zM363 1199l15 26l19 9l20 -3l12 -11q0 -2 2.5 -5.5t7.5 -15.5q0 -16 -10 -35l-25 -5h-15l-13 11q-9 7 -13 29zM464 1206 q0 23 34 37l18 -4l12 -8q7 -7 7 -20q0 -47 -31 -47l-28 9q-7 7 -8 18.5t-4 14.5zM558 1192q0 21 11.5 30t33.5 17l17 -5l14 -9q21 -29 4.5 -52t-35.5 -26l-16 2l-19 12q-10 10 -10 31zM659 1156q5 23 19 43l37 12l21 -5l15 -12q12 -17 12 -36t-13.5 -36t-34.5 -17l-25 4 l-15 12q-10 3 -16 35zM726.5 551.5q-1.5 30.5 17.5 68.5q21 33 73 60l25 5q35 0 45 -51l-3 -22l-16 -37l-23 -24q-14 -14 -22 -18q-40 -30 -72 -22q-23 10 -24.5 40.5zM762 1048q-5 30 12 69q17 33 82 63l19 2q49 0 49 -49l-2 -21l-14 -37q-9 -10 -16 -19.5t-12 -11.5 l-24 -19q-29 -33 -59 -21q-21 10 -35 44zM810 474q-2 16 15 29t32.5 18t43.5 -9l14 -20v-23q0 -12 -14 -35l-40 -17q-28 4 -31 17l-16 17zM852 364q0 30 49 40l30 -10l8 -16l7 -17q4 -26 -45 -44q-16 0 -36 12zM861 162q0 10 10 21l30 16l12 -4l14 -9l11 -12q7 -5 2.5 -19 t-9.5 -19l-30 -12l-26 12l-10 12zM868 261q-2 7 12 21q34 24 58 6l8 -16q6 -12 -3.5 -31t-29 -19.5t-29.5 8.5z" />
<glyph unicode="&#xa5;" horiz-adv-x="1450" d="M21 288l2 17l22 106q6 38 46 65l80 89l31 29l19 21l27 42l40 98l21 66l10 19q52 26 110 26l52 -5q47 -8 70 -16q39 -5 64.5 -15.5t37.5 -17t24.5 -13t24 -15t25.5 -24.5q29 -35 29 -59.5t-15 -43.5l-35 -45l-31 -26q-16 -12 -37 -18h-164q-40 -5 -64 -34 q-31 -37 -53 -100l-22 -82q-4 -12 -28 -43l-53 -51l-62 -47l-51 -28l-33 -5q-40 0 -63.5 34t-23.5 76zM364 927q5 17 11 26l24 13l18 -4l12 -9l7 -27l-11 -27l-17 -12l-35 12zM460 938l16 28q9 7 12 7l10 1l16 -3l14 -9q5 -3 5 -26l-7 -28l-10 -7l-12 -5l-14 3l-16 11 q-5 2 -10 12zM558 915q0 46 45 56l17 -5l14 -9q9 -5 9 -29q0 -42 -36 -50l-21 6q-28 16 -28 31zM633 80l1 25l25 61l33 40l70 73l12 10l12 7l54 21l37 9l59 21q31 14 56 35q21 23 24 42l9 34l2 20v29l-6 61q0 42 5.5 58.5t43.5 53.5l40 35q19 14 37.5 14t32.5 -6 q58 -33 105 -150l27 -92l9 -77q2 -9 2 -18v-15q0 -35 -12 -49l-19 -33l-182 -69l-36 -21l-26 -23l-27 -37l-134 -111l-26 -12l-71 -19h-35l-49 3q-28 5 -51 26q-23 26 -22 54zM659 891q0 19 17 33q10 12 37 15l19 -1l17 -12q12 -5 12.5 -30t-13.5 -42t-35 -17l-19 3l-18 14 l-14 12zM760 809q5 33 30 59q16 28 52 42l36 5q14 0 28.5 -11.5t17.5 -35.5l-2 -24q-10 -31 -36 -62q-35 -43 -71 -43h-8q-28 0 -37.5 15.5t-9.5 54.5zM1199 787.5q0 22.5 14 42.5q20 27 42 41l44 21l22 4q23 5 35 -14.5t12 -36.5v-17q-32 -84 -103 -101q-23 -2 -54 14 q-12 24 -12 46.5zM1290 688q-6 34 57 48q16 0 35 -11l16 -45l-5 -18l-7 -12l-40 -16q-12 0 -39 11l-14 21zM1335 580q0 7 9 18.5t31.5 14t34.5 -5.5l11 -14l7 -20q4 -8 -13 -27q-16 -12 -33 -13h-16q-31 27 -31 47zM1339 385l19 14q12 7 24 7q14 0 39 -16q9 -5 0 -24 l-11 -14q-7 -10 -23.5 -11t-30.5 6l-10 14q-12 12 -7 24zM1354 476l2 14l4 8l26 14q10 0 15 -1l20 -13l7 -10q2 -30 -7 -40l-32 -14l-16 7l-7 5l-10 12z" />
<glyph unicode="&#xa6;" horiz-adv-x="425" d="M145 -31v582h50v-582h-50zM145 945v582h50v-582h-50z" />
<glyph unicode="&#xa8;" horiz-adv-x="1408" d="M35 677.5q0 136.5 40 228.5t74 142t85 99q87 91 209 145t261 54q195 0 370 -115q158 -103 244 -297q55 -125 55 -256q0 -279 -198.5 -474t-468.5 -195q-136 0 -258 52q-243 103 -361 356q-52 124 -52 260.5zM122 678q0 -236 173 -411q74 -77 184 -128q111 -45 227 -45 q230 0 411 173q80 77 125.5 183t45.5 223.5t-49 225.5q-40 101 -121 183q-176 178 -412 178q-235 0 -408 -172q-176 -174 -176 -410zM333 715q0 -70 42 -121q42 -66 130 -113q92 -42 215.5 -42t217.5 75l49 40l40 40q40 60 40 121q0 -186 -96 -297q-40 -51 -94 -75 q-92 -41 -175 -41q-148 0 -261 120l-27 32q-3 3 -17 25q-24 30 -38 72l-19 76q-7 33 -7 88zM413 910q0 37 30.5 65.5t62 28.5t63 -27t31.5 -64.5t-29 -65.5t-66.5 -28t-64.5 27t-27 64zM807 903.5q0 37.5 26 63.5q33 28 67 28t60.5 -25.5t31.5 -63.5q0 -30 -26 -61 q-28 -28 -66.5 -28t-68.5 25q-24 24 -24 61.5z" />
<glyph unicode="&#xa9;" horiz-adv-x="862" d="M33 959.5q0 166.5 118.5 283.5t284 117t283.5 -119t118 -285t-118.5 -283t-285 -117t-283.5 118.5t-117 285zM84 957q0 -146 102.5 -248t247.5 -102t248.5 102.5t103.5 247.5t-102 248.5t-248.5 103.5t-249 -103t-102.5 -249zM209 954.5q0 100.5 73.5 168t186.5 67.5 q38 0 89.5 -14.5t53.5 -25.5v-85l-16 -4q-5 54 -43 77q-35 28 -108.5 28t-118 -57.5t-44.5 -145.5t45.5 -146.5t143 -58.5t143.5 98l15 -2l-19 -84q-5 -12 -56 -24l-104 -10q-108 0 -174.5 59t-66.5 159.5z" />
<glyph unicode="&#xab;" horiz-adv-x="1030" d="M61 547l298 387l143 -78l-131 -309l138 -310l-145 -78zM530 547l296 387l145 -78l-131 -309l136 -310l-145 -78z" />
<glyph unicode="&#xad;" horiz-adv-x="888" d="M96 453q61 95 92 192l605 2q-64 -104 -91 -192z" />
<glyph unicode="&#xae;" horiz-adv-x="862" d="M33 955q0 166 116 282.5t282.5 116.5t283.5 -116q116 -120 116 -284.5t-116.5 -281t-282.5 -116.5t-282.5 117t-116.5 282zM84 955q0 -145 102.5 -246.5t244.5 -101.5t247 102.5t105 246.5t-102.5 246.5t-248 102.5t-247 -102.5t-101.5 -247.5zM244 746v23q35 0 44.5 7 t13.5 28v315q0 16 -13 28q-21 7 -45 7v21h185q89 0 130 -32q37 -35 37 -74t-27 -74.5t-79 -46.5l101 -139q9 -10 15 -18q15 -20 48 -29v-16h-70q-17 0 -40 30q-93 125 -119 163h-55v-135q0 -35 52 -35v-23h-178zM370 960h52q45 0 71 27q23 28 23 75q0 88 -91 88h-55v-190z " />
<glyph unicode="&#xaf;" horiz-adv-x="533" d="M-89 1295v178h800v-178h-800z" />
<glyph unicode="&#xb0;" horiz-adv-x="766" d="M120 1135q0 109 76 185t183 76t184 -76.5t77 -182.5t-76 -183t-184 -77t-184 74.5t-76 183.5zM221 1137q0 -65 46.5 -112t111.5 -47t111.5 46t46.5 112t-46 112.5t-111 46.5q-64 0 -111.5 -46.5t-47.5 -111.5z" />
<glyph unicode="&#xb1;" horiz-adv-x="1150" d="M91 0v199h970v-199h-970zM91 514v199h387v260h198v-260h385v-199h-385v-260h-198v260h-387z" />
<glyph unicode="&#xb4;" horiz-adv-x="533" d="M30 1224q78 202 261 327q59 -42 119 -73l122 -59q-119 -40 -202.5 -99.5t-183.5 -169.5z" />
<glyph unicode="&#xb6;" horiz-adv-x="592" d="M0 771.5q0 91.5 64 145.5q64 59 189 59h341v-87h-75v-845h-94v845h-118v-845h-89v519q-92 0 -155 58.5t-63 150z" />
<glyph unicode="&#xb7;" horiz-adv-x="672" d="M239 514v168h171v-168h-171z" />
<glyph unicode="&#xbb;" horiz-adv-x="1030" d="M51 237l139 310l-134 309l146 78l298 -387l-305 -388zM518 237l139 310l-134 309l146 78l300 -387l-305 -388z" />
<glyph unicode="&#xbc;" horiz-adv-x="2025" d="M204 1251v68q130 16 240 65h131l-7 -178v-416l7 -175l94 -14v-52l-226 4l-218 -4v52l87 14l7 175v265l-12 196h-103zM500 -70l704 1466l236 26l-704 -1464zM1156 295l226 298q86 113 211 303h129l14 -18q-117 -132 -192 -233q-147 -198 -223 -312h283v305l165 77l66 -39 l-8 -153v-190h15q23 0 61 9l35 8l35 -29l-64 -94h-82l8 -164l81 -12v-54l-199 3l-256 -3v54l132 12l11 174v-10h-401z" />
<glyph unicode="&#xbd;" horiz-adv-x="2025" d="M204 1251v68q130 16 240 65h131l-7 -178v-416l7 -175l94 -14v-52l-226 4l-218 -4v52l87 14l7 175v265l-12 196h-103zM505 -70l705 1466l235 26l-702 -1464zM1152 59l187 131q87 63 142 117t117.5 135t62.5 150t-40 103.5t-105 34.5q-55 0 -98 -20t-57 -32l-5 -71l-64 -7 q-9 70 -32 122l-21 59q146 50 311 50t268 -67t103 -172.5t-82 -186.5t-148 -124q-49 -37 -112 -74l-115 -68l394 14l47 77l70 -17l-37 -110l-26 -106h-732z" />
<glyph unicode="&#xbe;" horiz-adv-x="2025" d="M10 675l203 122l47 -42l-35 -54q12 -23 56.5 -45t114 -22t125.5 55t56 124q0 99 -104 133q-32 11 -70 11l-129 -14l-20 85q105 14 168 56q68 40 68 110q0 40 -22 57q-41 32 -79 32q-54 0 -89 -16q-38 -10 -52 -24v-58l-70 -12q-14 56 -40 110l-21 52l94 28 q78 19 211.5 19t223 -49.5t90.5 -143.5q0 -52 -46.5 -90t-149.5 -64l35 2q115 0 185 -62t70 -147q0 -124 -130 -209.5t-302 -85.5t-259 44q-84 47 -129 98zM551 -70l702 1466l237 26l-704 -1464zM1161 295l225 298q65 86 211 303h129l13 -18q-117 -132 -217 -266l-197 -279 h282v305l167 77l65 -39l-7 -153v-190h14q23 0 63 9l33 8l35 -29l-65 -94h-80l7 -164l80 -12v-54l-199 3l-256 -3v54l133 12l10 174v-10h-401z" />
<glyph unicode="&#xbf;" horiz-adv-x="1030" d="M56 -14q0 173 125.5 268t318.5 135l32 172l169 46l76 -309l-29 -28l-44 -26q-162 -19 -232 -91q-73 -68 -73 -140.5t43.5 -125.5t115 -53t139.5 30t91 49l-5 104l99 25q35 -145 60 -199q35 -73 41 -97q-35 -18 -160.5 -48.5t-264.5 -30.5q-248 0 -375 93.5t-127 225.5z M455 909q0 72 55.5 123.5t132.5 51.5t132.5 -51.5t55.5 -123.5t-54.5 -123.5t-132 -51.5t-133.5 51.5t-56 123.5z" />
<glyph unicode="&#xc0;" horiz-adv-x="0" />
<glyph unicode="&#xc1;" horiz-adv-x="0" />
<glyph unicode="&#xc2;" horiz-adv-x="0" />
<glyph unicode="&#xc3;" horiz-adv-x="0" />
<glyph unicode="&#xc4;" horiz-adv-x="0" />
<glyph unicode="&#xc5;" horiz-adv-x="0" />
<glyph unicode="&#xc6;" horiz-adv-x="0" />
<glyph unicode="&#xc7;" horiz-adv-x="0" />
<glyph unicode="&#xc8;" horiz-adv-x="0" />
<glyph unicode="&#xc9;" horiz-adv-x="0" />
<glyph unicode="&#xca;" horiz-adv-x="1552" d="M35 531q0 177 66 314q145 274 453 375q157 51 328 51q146 0 256 -24q233 -51 330 -173q51 -59 50 -126h-769v246l-662 -666l662 -662v247h769q0 -61 -54 -132q-51 -61 -146 -106q-92 -47 -196 -65l-118 -17l-122 -6q-186 0 -328 51q-156 47 -268 143q-113 91 -182 232 t-69 318z" />
<glyph unicode="&#xcb;" horiz-adv-x="1638" d="M35 464l545 549h346l-440 -427h1118v-241h-1118l440 -427h-346z" />
<glyph unicode="&#xcc;" horiz-adv-x="1631" d="M35 464l451 502q60 71 138 82q17 0 42 -16q64 -23 108 -84q17 -30 23 -77q0 -58 -70 -128l-124 -119l800 3q98 0 143 -40q51 -34 51 -123q0 -164 -185 -164l-809 7l124 -119q12 -16 25 -31.5t29 -43.5t16 -57q0 -55 -53.5 -112t-119.5 -57q-26 0 -37 5l-33 12l-31 23 l-37 35z" />
<glyph unicode="&#xcd;" horiz-adv-x="775" d="M35 464l472 798v-274h234v-1049h-234v-272z" />
<glyph unicode="&#xce;" horiz-adv-x="1680" d="M35 455v16l78 36l77 51q14 10 45 36.5t69 56.5t74 81q40 49 75 106l72 128h10v-206h357v-587h-357v-211h-10q-177 356 -490 493zM936 173v587h152v-587h-152zM1168 173v587h111v-587h-111zM1384 173v587h75v-587h-75zM1591 173v587h54v-587h-54z" />
<glyph unicode="&#xcf;" horiz-adv-x="1645" d="M35 441l507 539v-213h1070v-605h-1070v-211z" />
<glyph unicode="&#xd0;" horiz-adv-x="1720" d="M35 446v35q40 16 73 35t61 38.5t30 18.5q60 45 129 114l71 78l12 19q16 26 26 37l48 75l48 91h47v-208h358v-631h-358v-207h-45q-78 151 -124.5 211.5t-79.5 92.5q-61 59 -132 109q-51 28 -97 54.5t-67 37.5zM66 476q164 -74 290 -202q111 -103 202 -288h-19v206h399v545 h-399v209h19q-70 -148 -114.5 -200t-82.5 -89l-108 -89q-85 -59 -178 -113zM938 148v631h195v-631h-195zM980 192h111v545h-111v-545zM1170 148v631h149v-631h-149zM1206 192h73v545h-73v-545zM1386 148v631h115v-631h-115zM1426 192h36v545h-36v-545zM1593 148v631h92v-631 h-92zM1633 192h11v545h-11v-545z" />
<glyph unicode="&#xd1;" horiz-adv-x="1697" d="M35 441l558 591v-248h1068v-639h-1068v-244zM91 441l463 -441v186h1063v558h-1063v183z" />
<glyph unicode="&#xd2;" horiz-adv-x="1701" d="M35 145v639h1070v248l561 -591l-561 -540v244h-1070zM80 186h1067v-186l458 441l-458 486v-183h-1067v-558z" />
<glyph unicode="&#xd3;" horiz-adv-x="1720" d="M35 148v631h92v-631h-92zM78 192h9v545h-9v-545zM220 148v631h118v-631h-118zM260 192h35v545h-35v-545zM401 148v631h152v-631h-152zM444 192h70v545h-70v-545zM587 148v631h197v-631h-197zM633 192h108v545h-108v-545zM784 148v631h356v208h50q84 -180 197 -299 q123 -123 298 -207v-35q-101 -45 -161 -89.5t-131 -110.5l-40 -42q-17 -27 -32 -38l-40 -54l-47 -77q-20 -47 -47 -94h-47v207h-356zM784 192h401v-206h-19q94 208 262 348q33 27 87 63.5t143 78.5l-14 -21q-89 47 -150 87q-63 51 -131 115q-144 153 -197 289h19v-209h-401 v-545z" />
<glyph unicode="&#xd4;" horiz-adv-x="1647" d="M35 162v605h1070v213l509 -539l-509 -490v211h-1070z" />
<glyph unicode="&#xd5;" horiz-adv-x="1680" d="M35 173v587h50v-587h-50zM220 173v587h73v-587h-73zM399 173v587h115v-587h-115zM587 173v587h154v-587h-154zM784 173v587h358v206h10q70 -161 204 -295l103 -85l30 -27l71 -43q38 -16 85 -45v-16q-35 -16 -73 -38q-51 -21 -82 -46l-66 -52l-68 -61q-109 -117 -204 -296 h-10v211h-358z" />
<glyph unicode="&#xd6;" horiz-adv-x="779" d="M35 -61v1049h233v274l475 -798l-475 -797v272h-233z" />
<glyph unicode="&#xd7;" horiz-adv-x="1631" d="M35 458q0 83 47 126.5t138 42.5l807 -3l-154 148l-19 33l-12 35l-5 31q-2 7 -2 22t14.5 44.5t40.5 52.5q64 58 110 58t70 -16q30 -21 77 -66l448 -502l-448 -502q-30 -33 -72 -58l-69 -17q-5 -2 -22 -2t-41 10q-99 70 -106 163q0 64 68 130l122 119l-800 -7 q-78 0 -140 38q-52 37 -52 120z" />
<glyph unicode="&#xd8;" horiz-adv-x="1640" d="M35 345v241h1117l-441 427h349l545 -549l-545 -546h-349l441 427h-1117z" />
<glyph unicode="&#xd9;" horiz-adv-x="1552" d="M35 113h765v-247l662 662l-662 666v-246h-765q0 80 40 123.5t69 64.5t96 56t187 57t267 22t300 -50.5t266.5 -142t189.5 -236.5q68 -139 68 -312t-70.5 -312.5t-184.5 -232.5q-243 -198 -595 -198h-34q-45 0 -94 7l-109 16q-108 20 -210 70q-86 47 -130 94 q-56 52 -56 139z" />
<glyph unicode="&#xf1;" horiz-adv-x="1690" d="M35 56h50l16 -25l18 25h26l54 52h54v54l29 31h53v53h29l138 139v32h56v48l28 28h55l27 32h59v82l78 81h28l28 27h47l28 -27l112 -163v-277h-30l-82 -79l56 -61h59l82 85h84v53h83l54 56h61v57h53v139l-30 30v54l-23 28v54h-61v30l-54 54h-29l-25 26l-251 169h-113 l-108 -112h-26l-108 -111h-58l-111 -110h-27l-27 -28h-25l-85 -84h-28l-26 -27h-56v-51h-30l-52 -59h-30l-50 -28v995h1623v-1680h-1623v408z" />
<glyph unicode="&#x152;" horiz-adv-x="725" d="M35 927l5 19q21 0 36.5 -1.5t35.5 -10.5q16 -3 43 -26q34 -19 65 -64q3 -2 7 -13l33 -59l22 -33l40 -77q8 -25 32 -48l22 -32l18 -19q4 -10 9 -19t8 -16l21 -35l9 -12l57 -87l34 43l19 55l24 48h40l23 -7l40 -28l7 -17l3 -23q0 -26 -3 -33q0 -28 -7 -42l-68 -170l-19 -2 q-9 0 -23 -7l-33 -7q-42 5 -59 26t-30 47l-139 246l-14 23q-3 9 -9 12l-104 169l-61 92l-11 14q-3 10 -7 14l-23 24z" />
<glyph unicode="&#x153;" horiz-adv-x="1139" d="M35 -40l26 54q7 19 38 66l86 127l56 75q5 7 34.5 46.5t39.5 53.5l79 104l68 82l-153 445l24 45l28 12l12 -5l21 -14l14 16l16 -7l31 31l33 -9l152 -303l301 356h28l44 -30l47 40l10 -29l35 -49l-45 -60l-94 -113q-45 -52 -98 -127l-129 -181l193 -431l-24 -21v-14 l-40 -31l14 -30q-2 -7 -28 -33q-16 -10 -35 -14q-41 17 -76 77l-170 281l-179 -265q-2 -5 -35 -60l-148 -251l-35 -12l-80 -10l-40 55l-16 46l16 56z" />
<glyph unicode="&#x178;" horiz-adv-x="1253" d="M35 5v249h36l14 -15l9 15h19l47 41h33v40l21 19h40v43h21l101 98v24h41v37l17 19h44l20 23h41v57l59 60h17l23 22h37l20 -22l79 -117v-199h-18l-61 -64l37 -40h47l61 59h59v43h61l40 40h39v39h40v106l-19 19v40l-21 18v43h-39v23l-40 37h-24l-21 19l-181 120h-80l-79 -80 h-21l-76 -82h-44l-80 -80h-19l-20 -18h-17l-64 -59h-21l-20 -24h-38v-35h-23l-43 -42h-18l-36 -23v724h1183v-1177h-1183z" />
<glyph unicode="&#x2c6;" horiz-adv-x="0" />
<glyph unicode="&#x2dc;" horiz-adv-x="533" d="M-183 1299q87 89 151.5 140t130.5 51t186.5 -43.5t189.5 -43.5t158 89q10 -23 38 -49l49 -40q-78 -84 -147 -137.5t-134.5 -54t-183 43.5t-173.5 44t-99 -28q-45 -23 -77 -61q-10 19 -40 48z" />
<glyph unicode="&#x2000;" horiz-adv-x="778" />
<glyph unicode="&#x2001;" horiz-adv-x="1556" />
<glyph unicode="&#x2002;" horiz-adv-x="778" />
<glyph unicode="&#x2003;" horiz-adv-x="1556" />
<glyph unicode="&#x2004;" horiz-adv-x="518" />
<glyph unicode="&#x2005;" horiz-adv-x="389" />
<glyph unicode="&#x2006;" horiz-adv-x="259" />
<glyph unicode="&#x2007;" horiz-adv-x="259" />
<glyph unicode="&#x2008;" horiz-adv-x="194" />
<glyph unicode="&#x2009;" horiz-adv-x="311" />
<glyph unicode="&#x200a;" horiz-adv-x="86" />
<glyph unicode="&#x2010;" horiz-adv-x="888" d="M96 453q61 95 92 192l605 2q-64 -104 -91 -192z" />
<glyph unicode="&#x2011;" horiz-adv-x="888" d="M96 453q61 95 92 192l605 2q-64 -104 -91 -192z" />
<glyph unicode="&#x2012;" horiz-adv-x="888" d="M96 453q61 95 92 192l605 2q-64 -104 -91 -192z" />
<glyph unicode="&#x2013;" horiz-adv-x="958" d="M-92 453q61 95 92 192h443l608 2q-54 -88 -92 -192h-443z" />
<glyph unicode="&#x2014;" horiz-adv-x="1917" d="M-42 453q30 47 54 97q34 74 39 95h1309l603 2q-64 -104 -91 -192h-1311z" />
<glyph unicode="&#x2018;" horiz-adv-x="674" d="M134 657q0 209 87.5 419t196.5 306l135 -77q-67 -214 -67 -312l-5 -291z" />
<glyph unicode="&#x2019;" horiz-adv-x="674" d="M120 739q52 161 68 312l9 293l342 42q0 -214 -86.5 -418.5t-198.5 -305.5z" />
<glyph unicode="&#x201a;" horiz-adv-x="674" d="M120 -342q52 159 68 312l9 295l342 42q0 -221 -86.5 -420.5t-198.5 -304.5z" />
<glyph unicode="&#x201c;" horiz-adv-x="958" d="M23 657q0 209 87 419t197 306l134 -77q-65 -209 -65 -312l-6 -291zM521 657q0 209 87 419t197 306l134 -77q-64 -206 -64 -312l-7 -291z" />
<glyph unicode="&#x201d;" horiz-adv-x="958" d="M14 739q66 209 66 312l11 293l341 42q0 -211 -88 -418.5t-196 -305.5zM512 739q67 212 67 294t5 187.5t5 123.5l342 42q0 -211 -88 -418.5t-196 -305.5z" />
<glyph unicode="&#x201e;" horiz-adv-x="958" d="M14 -342q66 216 66 312l11 295l341 42q0 -213 -87 -418.5t-197 -306.5zM512 -342q67 219 67 297.5t5 185.5t5 124l342 42q0 -213 -87.5 -418.5t-196.5 -306.5z" />
<glyph unicode="&#x2022;" horiz-adv-x="671" d="M103 673.5q0 98.5 70.5 167.5t167 69t166.5 -71.5t70 -166.5t-70 -168q-73 -70 -169 -70t-165.5 70.5t-69.5 169z" />
<glyph unicode="&#x2026;" horiz-adv-x="725" d="M35 448q-5 24 17 57l37 28l24 7h42l19 -48l7 -28l12 -25l34 -45l52 77l56 92l10 12q24 42 33 52l103 170l11 25q1 4 6 9l14 23q23 42 75 68q58 24 98 24l3 -19l-40 -56l-22 -24l-80 -120l-32 -56l-50 -73l-86 -143l-80 -148l-31 -53l-28 -36q-2 -3 -49 -14q-30 0 -58 14 h-12l-5 2l-40 99l-23 71z" />
<glyph unicode="&#x202f;" horiz-adv-x="311" />
<glyph unicode="&#x2039;" horiz-adv-x="0" />
<glyph unicode="&#x203a;" horiz-adv-x="0" />
<glyph unicode="&#x205f;" horiz-adv-x="389" />
<glyph unicode="&#x2122;" horiz-adv-x="1068" d="M40 1260v94h371v-94h-31q0 26 -15.5 47t-43.5 21h-63v-340q0 -28 5 -35t49 -12v-19h-173v19q38 0 47 9.5t9 37.5v340h-66q-23 0 -40.5 -20t-17.5 -48h-31zM469 922v19q35 0 43.5 12.5t8.5 34.5v298q0 26 -8.5 36.5t-43.5 10.5v21h103l174 -348l173 348h99v-21 q-35 0 -47 -8q-7 -10 -7 -39v-298q0 -26 6 -34t48 -13v-19h-167v19q35 0 43.5 12.5t8.5 34.5v267l-167 -333h-16l-167 333v-267q0 -28 6 -35t49 -12v-19h-139z" />
<glyph unicode="&#xe000;" horiz-adv-x="1063" d="M0 0v1063h1063v-1063h-1063z" />
</font>
</defs>
</svg>
