<?xml version="1.0" standalone="no"?>
<!DOCTYPE svg PUBLIC "-//W3C//DTD SVG 1.1//EN" "http://www.w3.org/Graphics/SVG/1.1/DTD/svg11.dtd" >
<svg xmlns="http://www.w3.org/2000/svg">
<metadata></metadata>
<defs>
<font id="SlingLight" horiz-adv-x="568" >
<font-face units-per-em="2048" ascent="1638" descent="-410" />
<missing-glyph horiz-adv-x="500" />
<glyph horiz-adv-x="0" />
<glyph horiz-adv-x="2048" />
<glyph unicode="&#xd;" />
<glyph unicode=" " />
<glyph unicode="!" horiz-adv-x="782" d="M169 1360l232 -6l209 7l4 -52l-124 -24l-53 -851h-92l-56 849l-115 22zM293 66.5q0 38.5 30.5 70.5t70.5 32t71.5 -31.5t31.5 -69.5t-31.5 -69.5t-69.5 -31.5t-70.5 30.5t-32.5 69z" />
<glyph unicode="&#x22;" horiz-adv-x="817" d="M218 1283q0 38 19 73q17 26 45 28t47.5 -27.5t19.5 -73.5l-21 -302q-10 -99 -44 -99q-26 0 -45 99zM443 1283q0 38 19 73q17 26 45 28t47 -27.5t19 -73.5l-20 -302q-10 -99 -44 -99q-26 0 -45 99z" />
<glyph unicode="#" horiz-adv-x="1134" d="M96 439v86h226l42 305h-205v87h217l60 441h97l-59 -441h269l59 441h97l-59 -441h202v-87h-214l-42 -305h194v-86h-206l-59 -439h-98l59 439h-268l-59 -439h-98l59 439h-214zM420 525h268l42 305h-268z" />
<glyph unicode="$" horiz-adv-x="1134" d="M61 127l58 230l55 2l12 -125q35 -35 150 -81q120 -40 204 -40v534q-218 61 -328.5 129.5t-110.5 196.5q0 160 143 259q117 82 296 98v197h86v-194q201 0 402 -83l-36 -117l-26 -117l-51 4l-3 57v35q-3 24 -6 37q-12 10 -80 37q-118 45 -200 45v-457l22 -5 q223 -61 323.5 -151t100.5 -215q0 -164 -146 -274q-112 -82 -300 -103v-294h-86v291q-217 0 -350 47q-58 21 -129 57zM268 1008.5q0 -103.5 126 -154.5l146 -54v431q-102 0 -187 -59.5t-85 -163zM626 117q113 12 181 63q91 71 91 187t-96 175q-63 40 -176 78v-503z" />
<glyph unicode="%" horiz-adv-x="1526" d="M37 1010.5q0 161.5 100.5 268.5t253 107t253 -105.5t100.5 -266t-94 -267.5t-250.5 -107t-259.5 104.5t-103 266zM138 -61l1101 1447l147 29l-1091 -1441zM173 1061q0 -160 60 -254t166.5 -94t163.5 78q54 84 54 216.5t-64.5 220.5t-157.5 88t-157.5 -72.5t-64.5 -182.5z M783 337.5q0 161.5 100.5 269.5t254 108t253 -106.5t99.5 -267t-94 -267.5t-250.5 -107t-259.5 104.5t-103 266zM919 389q0 -160 60 -254.5t167.5 -94.5t162.5 79q54 84 54 216.5t-64.5 221t-158.5 88.5t-160 -73q-61 -75 -61 -183z" />
<glyph unicode="&#x26;" horiz-adv-x="1668" d="M129 376q0 167 78 264q73 96 248 162l-33 64q-24 59 -25 122q0 190 118.5 293t315.5 103q101 0 173.5 -61t72.5 -173q0 -246 -437 -362q106 -152 188 -234q113 -122 265 -237q66 78 113 216q32 107 32 147q0 55 -13 101l-106 -12l-10 41q114 40 163 70t101 61l6 -97 q0 -233 -153 -496q-30 -50 -60 -85q152 -103 331 -169l127 37l18 -51l-228 -113q-163 65 -346 199q-85 -75 -183 -129q-117 -70 -310 -70t-319.5 130.5t-126.5 278.5zM293 441q0 -160 110.5 -263t241.5 -103t225 50q70 33 127 89q-154 114 -252 214q-168 171 -250 299 q-202 -97 -202 -286zM537 1046q0 -80 63 -195q173 47 247 109q87 66 87 155t-48 132t-129.5 43t-150.5 -63.5t-69 -180.5z" />
<glyph unicode="'" d="M216 1283q0 38 19 73q17 26 45 28t47.5 -27.5t19.5 -73.5l-21 -302q-10 -99 -44 -99q-26 0 -45 99z" />
<glyph unicode="(" horiz-adv-x="674" d="M228 502.5q0 300.5 115 533.5t215 327l52 -45q-66 -71 -150.5 -306t-84.5 -514t83.5 -509.5t151.5 -302.5l-52 -47q-96 91 -213 327t-117 536.5z" />
<glyph unicode=")" horiz-adv-x="674" d="M61 -314q70 71 155 309q86 241 86 512.5t-85 501t-156 309.5l52 45q98 -89 215.5 -324t117.5 -539q0 -303 -116.5 -536t-216.5 -325z" />
<glyph unicode="*" horiz-adv-x="996" d="M173 1075q0 37 17 86q9 38 37 78q51 -40 99 -66l150 -78q-9 49 -16 95q-15 96 -45 187q44 9 76 9q58 0 96 -9q-2 -7 -16.5 -57.5t-16.5 -57.5l-29 -167q51 26 90 45t60 33q52 26 99 66q44 -69 54 -164l-120 -5q-19 0 -69.5 -7.5t-98.5 -14.5l122 -121l93 -71l-63 -59 q-31 -23 -75 -44q-24 82 -55 144t-62 121q-49 -94 -75 -153l-42 -112q-45 20 -74 44q-35 24 -63 59q41 28 92 71l122 121l-169 22z" />
<glyph unicode="+" horiz-adv-x="1150" d="M91 443v96h439v434h96v-434h435v-96h-435v-440h-96v440h-439z" />
<glyph unicode="," d="M152 -300q52 134 75.5 235.5t23.5 221.5l87 2l79 12q0 -80 -54 -227.5t-154 -274.5z" />
<glyph unicode="-" horiz-adv-x="817" d="M84 495l52 106h99l497 4l-50 -108h-102z" />
<glyph unicode="." d="M180 67.5q0 39.5 30 71.5t70 32t71.5 -31.5t31.5 -71.5t-31 -70.5t-70 -30.5q-38 0 -70 30.5t-32 70z" />
<glyph unicode="/" horiz-adv-x="1136" d="M71 -61l861 1476l143 26l-861 -1476z" />
<glyph unicode="0" horiz-adv-x="1134" d="M84 675q0 318 126 514.5t354.5 196.5t355.5 -194q129 -198 129 -517.5t-128 -512.5t-354 -193t-354.5 194t-128.5 512zM248 677q0 -289 80 -457t236.5 -168t238.5 167.5t82 456.5t-81 458.5t-238 169.5t-237.5 -169t-80.5 -458z" />
<glyph unicode="1" horiz-adv-x="1134" d="M310 1231v50q146 33 277 105h67l-4 -443v-546l9 -329l131 -23v-50l-222 5l-223 -5v50l134 23l6 328v608l-6 227h-169z" />
<glyph unicode="2" horiz-adv-x="1134" d="M16 75q120 83 266 214q124 117 212 214.5t179.5 238t91.5 274t-65.5 204t-163.5 70.5t-170.5 -29t-102.5 -60l4 -131l-54 -12l-61 239q28 14 75 30.5t112.5 37.5t171.5 21q193 0 313.5 -101.5t120.5 -255.5t-124 -325q-108 -150 -207 -247q-186 -190 -389 -330l219 -8 q122 0 260 13q92 0 173 18l66 111l47 -8q-13 -62 -25 -106q-14 -48 -33 -152l-447 5l-440 -5z" />
<glyph unicode="3" horiz-adv-x="1134" d="M31 204l204 127l19 -31l-48 -73q26 -59 101 -111.5t209 -52.5t237 104.5t103 247.5t-80.5 226.5t-254.5 83.5l-132 -17l-18 69q127 33 240.5 102t113.5 205q0 98 -52.5 152t-148 54t-149.5 -30l-47 -24q-23 -11 -35 -21l9 -82l-48 -16q-17 73 -48 131l-28 54l127 51 q84 33 235.5 33t250 -82t98.5 -211q0 -91 -60 -172t-217 -123q237 0 328.5 -99t91.5 -235q0 -200 -170 -347.5t-397 -147.5q-179 0 -285 76.5t-149 158.5z" />
<glyph unicode="4" horiz-adv-x="1134" d="M44 498l334 499q176 261 317 493h98l17 -29l-317 -469q-91 -134 -136 -205t-172 -269h488v599l137 65l28 -25l-12 -144v-495h23q58 0 104 15l56 20l23 -28l-44 -70q-18 -31 -35 -45h-127v-11l11 -329l120 -21v-52l-208 5l-245 -5v52l162 21l7 327v13h-570z" />
<glyph unicode="5" horiz-adv-x="1134" d="M54 270l206 127l29 -38l-68 -84q24 -84 103 -148t215.5 -64t231.5 97.5t95 242t-95 237t-239 92.5q-108 0 -237 -76q-34 -20 -61 -46l-79 54l127 673l35 23l199 -6h152q76 0 123 9q62 0 159 23l26 -26l-68 -63l-57 -70h-476l-94 -478q126 91 289 91q204 0 334 -116 t130 -299t-155.5 -319.5t-351.5 -136.5t-312.5 90.5t-160.5 210.5z" />
<glyph unicode="6" horiz-adv-x="1134" d="M94 533q0 340 250 608.5t587 385.5l29 -70q-399 -167 -575 -448q-112 -183 -129 -389q31 67 112 131q113 89 273.5 89t280.5 -120t120 -299.5t-137.5 -315.5t-337 -136t-336.5 143.5t-137 420.5zM270 402.5q0 -152.5 96 -251.5t227 -99t207.5 90t76.5 242.5t-77.5 250 t-214.5 97.5t-226 -88.5t-89 -241z" />
<glyph unicode="7" horiz-adv-x="1134" d="M153 1112l54 248h783l42 -77q-199 -260 -342 -601q-157 -387 -157 -685q-66 -23 -104.5 -54.5t-76.5 -76.5l-45 22q134 632 432 1130q75 125 146 206l-245 5h-65q-164 0 -319 -18l-52 -116z" />
<glyph unicode="8" horiz-adv-x="1134" d="M101 342q0 270 321 367q-139 52 -195 137t-56 177q0 155 116 259t293 104q172 0 274.5 -88t102.5 -237q0 -113 -70.5 -188.5t-227.5 -123.5q180 -49 275.5 -146.5t95.5 -220.5q0 -178 -136 -295.5t-333.5 -117.5t-328.5 109.5t-131 263.5zM256 353q0 -128 87 -212 q89 -78 223.5 -78t223 75.5t88.5 190.5q0 146 -144.5 224.5t-235.5 115.5q-84 -40 -160 -115q-82 -73 -82 -201zM312 1064.5q0 -105.5 92.5 -176.5t175.5 -100q80 33 158 99t78 172t-72.5 174.5t-179 68.5t-179.5 -66t-73 -171.5z" />
<glyph unicode="9" horiz-adv-x="1134" d="M94 931.5q0 185.5 131.5 320t333.5 134.5t342.5 -143t140.5 -408q0 -322 -238.5 -601t-596.5 -408l-33 71q370 152 560 431q144 208 144 404q-132 -216 -369 -216q-176 0 -295.5 115t-119.5 300.5zM260 972.5q0 -153.5 77.5 -253t206.5 -99.5t225 84.5t96 244 t-93.5 256.5t-224 97t-209 -88t-78.5 -241.5z" />
<glyph unicode=":" d="M180 67.5q0 39.5 30 71.5t70 32t71.5 -31.5t31.5 -71.5t-31 -70.5t-70 -30.5q-38 0 -70 30.5t-32 70zM180 686q0 39 30 71.5t70 32.5t71.5 -31.5t31.5 -72t-31 -70.5t-70 -30q-38 0 -70 30.5t-32 69.5z" />
<glyph unicode=";" d="M152 -300q52 134 75.5 235.5t23.5 221.5l87 2l79 12q0 -80 -54 -227.5t-154 -274.5zM209 686q0 39 30.5 71.5t70.5 32.5t71.5 -31.5t31.5 -72t-31.5 -70.5t-69.5 -30t-70.5 30.5t-32.5 69.5z" />
<glyph unicode="&#x3c;" horiz-adv-x="1150" d="M91 436v103l969 454v-118l-849 -389l849 -387v-118z" />
<glyph unicode="=" horiz-adv-x="1150" d="M91 248v95h965v-95h-965zM91 631v96h965v-96h-965z" />
<glyph unicode="&#x3e;" horiz-adv-x="1150" d="M91 -19v118l848 387l-848 389v118l969 -454v-103z" />
<glyph unicode="?" horiz-adv-x="958" d="M96 1300q27 16 127 51t225 35q204 0 305 -93.5t101 -225.5q0 -92 -108 -199.5t-293 -161.5l-19 -235l-73 -23l-58 300l33 38q169 31 253 118.5t84 176t-60 144.5t-149 56t-164 -38l-73 -37l3 -111l-42 -16l-69 178q-5 12 -11.5 23t-11.5 20zM284 69q0 41 29.5 71.5 t70.5 30.5t71.5 -30.5t30.5 -71t-30.5 -70.5t-69 -30t-74.5 31q-28 28 -28 69z" />
<glyph unicode="@" horiz-adv-x="1150" d="M45 512.5q0 209.5 160 369t389 159.5t370 -126.5t141 -293t-93 -285t-193.5 -118.5t-131.5 110q-23 -31 -75 -72q-55 -36 -111.5 -36t-99 51t-42.5 158t91.5 227.5t222.5 120.5q71 0 99 -85l9 57h113l-101 -379q-3 -11 -9 -46q0 -23 20 -40t45 -17q63 0 134.5 102.5 t71.5 252t-129 265t-315.5 115.5t-321 -144.5t-134.5 -350t138.5 -345t309.5 -139.5q110 0 192.5 22.5t124.5 55.5l19 -35q-26 -26 -118 -54.5t-209 -28.5q-246 0 -406.5 160t-160.5 369.5zM457 375q0 -52 28.5 -75t60.5 -23q82 0 143.5 121t61.5 207q0 52 -15 85 q-11 35 -41 35q-96 0 -167 -115t-71 -235z" />
<glyph unicode="A" horiz-adv-x="1455" d="M45 -5v50l101 23q115 275 198 502t120.5 331.5t74 209t73.5 208.5l73 23q65 23 101 44l42 -23q244 -718 483 -1295l103 -24v-51l-224 5l-221 -3v50l131 23l-150 469l-244 5l-253 -5l-141 -469l131 -23v-50l-199 5zM483 633l218 -6l218 6l-222 608z" />
<glyph unicode="B" horiz-adv-x="1314" d="M80 -5v50l119 23q14 34 14 120l5 169v640l-16 289l-118 21v53l218 -6l404 11q411 0 411 -298q0 -101 -68 -183q-64 -73 -244 -114q221 0 336.5 -89.5t115.5 -220.5q0 -213 -151 -341.5t-400 -128.5l-404 10zM385 127l148 -29l145 -14q185 0 288.5 87t103.5 247.5 t-110.5 224t-332.5 63.5l-123 -4q-53 0 -119 -14v-561zM385 798l168 -7q176 0 275 67q103 63 103 186.5t-74 175t-226 51.5l-246 -13v-460z" />
<glyph unicode="C" horiz-adv-x="1314" d="M73 681.5q0 301.5 222.5 503t558.5 201.5q230 0 371 -75l16 -6q-43 -124 -70 -271l-43 5l-16 148q-63 46 -162 71q-109 21 -183 21q-235 0 -377 -162t-142 -419t156.5 -431.5t385.5 -174.5q127 0 234 55t210 144l49 -49q-113 -122 -260 -198.5t-307 -76.5 q-268 0 -455.5 206.5t-187.5 508z" />
<glyph unicode="D" horiz-adv-x="1491" d="M82 -5v50l117 23q12 30 12 120l5 169v640l-5 167q0 88 -12 122l-117 21v53l218 -6l509 11q289 0 445 -172t156 -474t-207.5 -516.5t-498.5 -214.5l-404 12zM399 125q166 -41 291 -41q253 0 394 169q140 173 140 467q0 249 -139.5 400t-382.5 151h-63q-25 0 -88 -7 q-46 0 -152 -26v-1113z" />
<glyph unicode="E" horiz-adv-x="1242" d="M84 -5v50l120 23l12 120l7 169v640l-17 289l-117 21v53l216 -6h750q0 -47 18 -127t20.5 -86t18.5 -43l-54 -17l-73 134q-31 17 -148 17q-136 14 -319 14h-112l-9 -110q-10 -108 -10 -254v-89h105q95 0 187 3q159 7 165 13l33 89h50l-7 -155q0 -87 11 -156h-56l-33 105 l-350 12h-105v-244q0 -175 10 -254l9 -110h195q224 0 452 38l83 161l49 -21q-57 -177 -57 -274h-823z" />
<glyph unicode="F" horiz-adv-x="1099" d="M82 1307v53l220 -6h709q0 -47 16.5 -120t40.5 -125l-54 -16l-73 125q-3 2 -44 9t-106 7q-122 12 -317 12h-71l-9 -110q-10 -108 -11 -254v-122h103l250 5q98 0 111 9l33 89h52l-8 -152q0 -93 10 -153h-56l-33 99l-359 12h-104l1 -312l6 -169q0 -90 19 -120l162 -23v-50 l-268 5l-218 -5v50l118 23l14 289v640l-14 289z" />
<glyph unicode="G" horiz-adv-x="1455" d="M84 682q0 309 203 506.5t536 197.5q240 0 416 -81q-44 -128 -62 -263l-51 9v129q-177 99 -386.5 99t-346.5 -169t-137 -425.5t156 -432t379 -175.5q115 0 181 23q112 41 157 71v233l-5 216l-153 23v49h411v-47l-83 -26l-2 -436l76 -42q-303 -174 -598.5 -174t-493 203 t-197.5 512z" />
<glyph unicode="H" horiz-adv-x="1455" d="M80 -5v50l119 23q14 34 14 120l5 169v640l-16 289l-118 21v53l219 -6l220 6v-53l-119 -21l-14 -122l-5 -167v-213l683 -1l2 214l-17 289l-117 21v53l216 -6l223 6v-53l-118 -21q-14 -39 -14 -122l-5 -167v-640l15 -289l119 -23v-50l-220 5l-220 -5v50l119 23l14 120 l5 169v330l-683 1l-2 -331l18 -289l116 -23v-50l-216 5z" />
<glyph unicode="I" horiz-adv-x="606" d="M82 -5v50l120 23l12 120l7 169v640l-17 289l-117 21v53l216 -6l220 6v-53l-119 -21l-14 -122l-5 -167v-640l18 -289l116 -23v-50l-216 5z" />
<glyph unicode="J" horiz-adv-x="606" d="M-127 -289q178 101 265 224.5t87 428.5v633l-19 289l-126 21v53l227 -6l221 6v-53l-120 -21l-12 -122l-7 -167v-784q0 -216 -131 -328.5t-356 -231.5z" />
<glyph unicode="K" horiz-adv-x="1383" d="M77 -5v50l125 23l19 289v640l-7 167q0 72 -12 122l-122 21v53l223 -6l220 6v-53l-119 -21l-14 -122l-5 -167v-204l326 244q89 68 175.5 136.5t140.5 111.5l-88 22v53l189 -6l188 6v-53l-94 -21q-306 -187 -711 -503q162 -168 371 -377q190 -185 371 -338l129 -24v-49 l-139 -7l-140 -18q-171 188 -350 372l-370 374l2 -359l18 -289l116 -23v-50l-216 5z" />
<glyph unicode="L" horiz-adv-x="1136" d="M80 -5v50l119 23q14 34 14 120l5 169v640l-16 289l-118 21v53l218 -6l219 6v-53l-118 -21l-14 -122l-6 -167v-525q0 -168 11 -256l9 -108l183 -9h40q153 0 409 37l84 157l47 -18q-42 -112 -70 -275h-794z" />
<glyph unicode="M" horiz-adv-x="1809" d="M82 -5v50l120 23q10 28 11 232l14 528l3 301l-5 79q0 77 -11 80l-99 19v53l251 -6h134l413 -1188l403 1188h125l243 6v-53l-117 -21l2 -289l8 -640l11 -169q0 -96 21 -120l118 -23v-50l-230 5l-211 -5v50l117 23l12 289l-12 926l-453 -1288h-138l-455 1288l-5 -455v-528 q0 -216 4 -232l120 -23v-50l-187 5z" />
<glyph unicode="N" horiz-adv-x="1455" d="M80 1307v53l206 -6h80q180 -277 312 -471q276 -408 448 -670v603q0 160 -10 294q0 137 -18 176l-122 21v53l207 -6l190 6v-53l-108 -21l-15 -176l-7 -341v-790h-129l-33 44l-743 1108v-774l7 -169q0 -91 21 -120l115 -23v-50l-202 5l-197 -5v50l111 23q20 29 20 120 l8 169v661l-14 235l-8 33z" />
<glyph unicode="O" horiz-adv-x="1565" d="M84 677q0 309 199.5 509t507.5 200t500 -199t192 -507.5t-198.5 -510.5t-505.5 -202t-501 200.5t-194 509.5zM256 677q0 -264 149 -439t376.5 -175t378.5 172.5t151 439t-151 441t-379.5 174.5t-376.5 -174.5t-148 -438.5z" />
<glyph unicode="P" horiz-adv-x="1171" d="M82 -5v50l120 23l12 120l7 169v640l-17 289l-117 21v53l216 -6l403 11q214 0 322 -86.5t108 -273t-151 -315.5t-375 -129h-26q-40 0 -72 5q-24 0 -50 6.5t-44 9.5l42 96l94 -19l96 -4q127 0 213.5 89t86.5 225t-91.5 219t-246.5 83h-55q-25 0 -60 -4q-51 0 -112 -19v-891 q0 -81 9 -169q0 -77 16 -120l160 -23v-50l-267 5z" />
<glyph unicode="Q" horiz-adv-x="1565" d="M82 677.5q0 308.5 199.5 508.5t506.5 200t500.5 -199t193.5 -507.5t-201 -512.5q-200 -200 -497 -200q17 -7 111.5 -36t173.5 -51q190 -51 317 -70l83 71l39 -29q-63 -78 -98 -145l-33 -64q-549 183 -739.5 272t-301.5 198l-61 54q-193 202 -193 510.5zM254 677 q0 -264 149.5 -439t377 -175t378 172.5t150.5 439t-151 441t-379 174.5t-376.5 -174.5t-148.5 -438.5z" />
<glyph unicode="R" horiz-adv-x="1314" d="M82 -5v50l120 23l12 120l7 169v640l-17 289l-117 21v53l216 -6l481 11q180 0 283 -87.5t103 -227.5t-109 -250q-104 -110 -332 -138l256 -313q87 -101 265 -281l97 -23v-48h-57q-21 0 -80 -7q-51 0 -135 -20q-286 401 -425 565q-47 56 -94 110h-171v-288l18 -289l116 -23 v-50l-216 5zM387 741l199 -12q180 0 287 78t107 209q0 255 -360 255l-120 -6q-63 -5 -113 -17v-507z" />
<glyph unicode="S" horiz-adv-x="1207" d="M80 96q31 58 61 131l47 134l53 -16l-13 -139q36 -32 156 -82q119 -50 255 -50h3q138 0 224 74.5t86 198t-103 183.5q-93 55 -248 99q-235 61 -364 143q-117 82 -117 218q0 178 149 287t381 109q225 0 434 -87l-54 -128q-26 -70 -40 -125l-58 12l11 117q-10 17 -114 60.5 t-234.5 43.5t-223.5 -61q-87 -63 -87 -171.5t117.5 -164.5t280.5 -99q246 -66 346.5 -166t100.5 -232q0 -180 -156 -299t-398 -119q-287 0 -495 129z" />
<glyph unicode="T" horiz-adv-x="1242" d="M17 1103l39 124q9 22 26 127h1075q13 -80 28 -127l40 -122l-54 -19l-64 125q-10 5 -100 22q-140 25 -285 25l-20 -197v-704l18 -289l117 -23v-50l-218 5l-216 -5v50l116 23q13 52 13 120l5 169v704l-18 197q-166 0 -265 -18t-113 -25l-71 -129z" />
<glyph unicode="U" horiz-adv-x="1455" d="M87 1307v53l216 -6l220 6v-53l-119 -21l-14 -122l-5 -167v-462q0 -225 83 -334t260 -109t279 103t102 270v63l-9 527q0 185 -12 231l-133 21v53l216 -6l197 6v-53l-118 -21q-11 -62 -11 -231l-7 -527v-71q0 -225 -135 -357.5t-382.5 -132.5t-370.5 116.5t-123 367.5v546 l-17 289z" />
<glyph unicode="V" horiz-adv-x="1420" d="M30 1305v53l221 -4l213 6v-53l-117 -21l392 -1169q94 296 198.5 594.5t190.5 573.5l-112 22v53l192 -6l186 6v-53l-116 -22q-134 -314 -257 -651l-233 -657l-154 2q-58 164 -112 318.5t-117 327.5q-125 344 -267 661z" />
<glyph unicode="W" horiz-adv-x="1953" d="M12 1307v53l225 -6l216 6v-53l-117 -17q114 -507 309 -1158q106 443 134 568.5t72 334t71 325.5h28l64 -6l61 6q58 -279 136 -614l155 -610l314 1149l-117 22v53l192 -6l183 6v-53l-115 -22l-209 -654l-195 -652h-166l-131 589q-26 110 -59 254t-83 339l-145 -591 q-54 -225 -133 -591h-167l-195 652q-123 403 -208 654z" />
<glyph unicode="X" horiz-adv-x="1420" d="M42 -5v50l136 23l456 620l-430 598l-120 21v53l225 -6l214 6v-51l-105 -23l302 -476l155 236l146 239l-99 22v53l206 -6l195 6v-53l-136 -15q-117 -150 -211 -281l-197 -277l493 -670l105 -19v-50l-220 5l-218 -5v50l98 25l-347 542l-343 -544l129 -17v-56l-216 5z" />
<glyph unicode="Y" horiz-adv-x="1314" d="M19 1307v53l213 -6l204 6v-53l-110 -22l350 -642l352 642l-116 22v53l193 -6l181 6v-53l-106 -22l-446 -719v-209l7 -169q0 -92 14 -120l137 -23v-50l-240 5l-244 -5v50l141 23l12 120l9 169v211l-443 717z" />
<glyph unicode="Z" horiz-adv-x="1279" d="M59 52q73 99 151 202q197 260 261 349t146 205q188 266 305 438l-214 12q-183 0 -316.5 -15.5t-149.5 -29.5l-82 -145l-52 20l42 132l26 134h985l26 -35q-249 -326 -361.5 -483.5t-204.5 -287.5q-145 -204 -304 -433l157 -16l157 -3q197 0 279 16q159 29 186 40l70 143 l54 -16q-39 -112 -59 -279h-1081z" />
<glyph unicode="[" horiz-adv-x="674" d="M263 -361v1724l208 -7l177 7l2 -56l-233 -31v-1548l230 -33l3 -56l-179 9z" />
<glyph unicode="\" horiz-adv-x="1136" d="M71 1415l143 -22l851 -1454l-145 23z" />
<glyph unicode="]" horiz-adv-x="674" d="M24 -305l230 33v1548l-228 31l-2 56l180 -7l204 7v-1724l-204 9l-178 -9z" />
<glyph unicode="^" horiz-adv-x="1150" d="M174 654l358 700h83l358 -700h-108l-292 575l-291 -575h-108z" />
<glyph unicode="_" horiz-adv-x="958" d="M0 -406h959v-92h-959v92z" />
<glyph unicode="`" horiz-adv-x="533" d="M63 1461q71 10 141 80q159 -129 235 -316q-34 -9 -59 -36q-77 97 -152 165q-69 55 -165 107z" />
<glyph unicode="a" horiz-adv-x="1136" d="M78 256q0 167 176.5 284t453.5 117h92v68q0 143 -59 202q-58 63 -168 63t-198 -33l-93 -37l6 -108l-42 -14l-91 206q44 19 145 50.5t269.5 31.5t266.5 -73.5t98 -196.5v-478q0 -115 11 -178q17 -64 43 -90l80 -25v-52l-106 4l-59 1h-34t-39 -3q-21 0 -30.5 106t-9.5 153 q-92 -176 -195 -230t-198 -54q-143 0 -231 85.5t-88 200.5zM244 275q0 -70 49 -125q54 -54 139 -54q244 0 332 282q27 87 27 192l-101 3q-191 0 -329 -92q-117 -85 -117 -206z" />
<glyph unicode="b" horiz-adv-x="1171" d="M16 1422v53l130 19q47 9 129 33h37l-3 -281v-333q146 173 333.5 173t305 -143t117.5 -383.5t-157 -418.5q-155 -171 -380 -171q-103 0 -185.5 15t-182.5 15h-28l-38 -10l52 80l11 293v693l-9 345zM310 132q24 -19 100 -47.5t176 -28.5q132 0 222.5 132.5t90.5 333 t-88 319.5t-250 119q-117 0 -184 -82t-67 -221v-525z" />
<glyph unicode="c" horiz-adv-x="1030" d="M78 492.5q0 243.5 169.5 418.5t418.5 175q110 0 188 -28l78 -24l-67 -229l-53 11v103q-14 12 -80 41.5t-141 29.5q-162 0 -254.5 -122t-92.5 -330t100 -325t282 -117q112 0 193 56q79 54 113 92l48 -42q-52 -71 -163 -151.5t-254 -80.5q-216 0 -350.5 139.5t-134.5 383z " />
<glyph unicode="d" horiz-adv-x="1171" d="M78 504.5q0 243.5 167.5 412.5t420.5 169q51 0 94 -9q52 -5 80 -19l-10 343l-138 21v53l132 19q51 9 133 33h38l-3 -281v-857l10 -326l112 -18v-55q-61 7 -140 7h-47l-92 -2v164q-134 -189 -323 -189t-311.5 145.5t-122.5 389zM244 551q0 -199 91.5 -327t228.5 -128 q198 0 254 230q17 73 17 171v435l-84 39q-63 19 -146 19q-164 0 -262.5 -120.5t-98.5 -318.5z" />
<glyph unicode="e" horiz-adv-x="1099" d="M78 495.5q0 246.5 152 418.5t354 172t305 -103q106 -98 106 -277l7 -77h-758l-2 -35v-78q0 -190 97.5 -305t265.5 -115q181 0 313 134q35 35 55 65l54 -42q-56 -110 -187 -199q-136 -84 -277 -84q-228 0 -356.5 139.5t-128.5 386zM254 716l480 9l96 7q0 132 -59.5 200 t-174.5 68q-153 0 -256 -115q-55 -61 -86 -169z" />
<glyph unicode="f" horiz-adv-x="637" d="M80 -5v50l122 23l5 328v578l-123 -10v59l123 33v61q0 173 139 291.5t281 118.5q82 0 136 -19l49 -19l-83 -211l-44 10l7 105l-61 26q-37 12 -102 12t-119 -59q-49 -59 -49 -169v-147l216 4l-40 -94l-176 7v-576l10 -329l154 -23v-50l-241 5z" />
<glyph unicode="g" horiz-adv-x="1136" d="M78 -263q0 96 89 176l56 -38q-14 -17 -19 -44l-5 -56q0 -61 104 -134q104 -70 254 -70t240 53.5t90 168t-151 181.5q-63 28 -178 28t-307 -46l-87 96l43 98q31 67 72 207q-35 17 -56 39q-120 104 -120 282t134 293t319 115q87 0 153 -21l147 -24l242 -7l2 -32v-17 l-30 -12q-26 -12 -181 -13q122 -110 122 -268q0 -159 -135 -279t-320 -120q-124 0 -197 29q-2 -17 -40.5 -123.5t-43.5 -107.5l63 19q91 26 267 26t313 -79.5t137 -232t-163 -257t-364.5 -104.5t-325.5 82t-124 192zM268 688.5q0 -139.5 80.5 -226t204 -86.5t209.5 88 q82 91 82 224q0 145 -79 229q-75 85 -206.5 85t-211 -87t-79.5 -226.5z" />
<glyph unicode="h" horiz-adv-x="1207" d="M42 1422v53l131 19q47 9 130 33h39l-4 -281v-352q68 84 165.5 138t219.5 54t210 -89t88 -235v-365l11 -329l122 -23v-50l-211 5l-80 -5v50l3 23v589q0 155 -55.5 229t-186.5 74t-208.5 -108.5t-77.5 -288.5v-166l7 -329l119 -23v-50l-203 5l-203 -5v50l120 23l7 328v660 l-11 345z" />
<glyph unicode="i" d="M64 981v53q107 12 131 19l131 33h38l-3 -281v-408l7 -329l118 -23v-50l-202 5l-204 -5v50l122 23l5 328v219l-10 345zM176 1400q0 42 29.5 71.5t78.5 34.5q44 0 75 -31.5t31 -75.5t-28.5 -73t-77.5 -34q-42 0 -77 31q-31 35 -31 77z" />
<glyph unicode="j" horiz-adv-x="533" d="M-54 -483q84 53 164 161t80 343v594l-10 345l-131 21v53l129 19l131 33h38l-4 -281v-472l7 -251q0 -155 -12 -253q-21 -176 -364 -366zM159 1400q0 42 29.5 71.5t78.5 34.5q44 0 73.5 -29.5t34.5 -76.5q0 -44 -29.5 -73.5t-78.5 -34.5q-42 0 -77 31q-31 35 -31 77z" />
<glyph unicode="k" horiz-adv-x="1136" d="M42 1422v53l129 19q26 5 62.5 14.5t66.5 18.5h38l-5 -281v-626l216 180q133 111 218 192l-85 19v49l359 1v-48l-117 -25l-434 -341l254 -295q129 -143 272 -288l122 -20v-47l-131 -4l-130 -17q-15 11 -39 38l-230 270q-150 176 -240 270l-35 35v-192l10 -329l121 -23v-50 l-204 5l-202 -5v50l120 23l7 328v660l-11 345z" />
<glyph unicode="l" d="M68 1422v53l129 19q47 9 131 33h38l-3 -281v-849l7 -329l115 -23v-50l-199 5l-204 -5v50l122 23l5 328v660l-10 345z" />
<glyph unicode="m" horiz-adv-x="1847" d="M58 988v51q105 0 264 47h44l-17 -223q77 99 174 161t174 62q127 0 190 -58.5t93 -182.5q51 71 148 156t228 85t209.5 -90t78.5 -234v-365l8 -329l128 -23v-50l-213 5l-84 -5v50l7 23v579q0 153 -49.5 233t-169 80t-196.5 -109q-76 -115 -76 -288v-166l10 -329l120 -23 v-50l-207 5l-211 -5v50l129 23l5 328v251q0 150 -49.5 231.5t-174 81.5t-197.5 -122q-72 -129 -72 -291v-150l11 -329l120 -23v-50l-208 5l-202 -5v50l120 23l6 328v224l-9 346z" />
<glyph unicode="n" horiz-adv-x="1242" d="M59 988v51q59 0 133 16q66 10 132 31h44l-18 -216q182 216 373 216q139 0 227.5 -89t88.5 -235v-365l10 -329l122 -23v-50l-211 5l-80 -5v50l4 23v589q0 155 -56 229t-186.5 74t-208 -108.5t-77.5 -288.5v-166l7 -329l118 -23v-50l-202 5l-204 -5v50l120 23l7 328v224 l-10 346z" />
<glyph unicode="o" horiz-adv-x="1207" d="M78 528q0 242 151 400t384 158t374 -157t141 -400t-150 -401t-383 -158t-377 157q-140 159 -140 401zM242 528q0 -202 108 -342q105 -132 265 -132t254.5 131.5t94.5 337t-107.5 342.5t-267.5 137t-253.5 -132.5t-93.5 -341.5z" />
<glyph unicode="p" horiz-adv-x="1171" d="M16 988v51q103 0 266 47h44l-17 -202q105 144 249 190q40 12 89 12q190 0 304 -144t114 -383t-152 -414q-155 -175 -397 -175q-107 0 -206 47v-137l7 -328l141 -23v-50l-224 5l-203 -5v50l121 23l5 328v740l-9 346zM310 139l105 -50q71 -33 160 -33q138 0 230 134 q94 142 94 339.5t-88 314t-252 116.5q-122 0 -185.5 -94t-63.5 -275v-452z" />
<glyph unicode="q" horiz-adv-x="1171" d="M77 507q0 244 165.5 411.5t426.5 167.5h50q24 0 46 -5q44 0 115 -13l195 -8l4 -46q-89 -17 -91 -33v-1101l5 -328l121 -23v-50l-201 5l-231 -5v50l146 23l9 328v294q-132 -204 -321.5 -204t-314 146.5t-124.5 390.5zM244 549q0 -200 91.5 -326.5t239.5 -126.5 q113 0 186.5 98t73.5 304v436l-91 39q-63 17 -143 17q-166 0 -261.5 -120.5t-95.5 -320.5z" />
<glyph unicode="r" horiz-adv-x="780" d="M58 988v51q97 0 254 47h40l-16 -319q140 319 330 319q72 0 113 -31q-63 -117 -101 -232q-35 7 -42 17q0 14 4 19q0 75 -14 81t-32 6q-96 -10 -167 -130q-75 -143 -75 -295v-124l11 -329l141 -23v-50l-229 5l-202 -5v50l120 23l6 328v224l-9 346z" />
<glyph unicode="s" horiz-adv-x="958" d="M38 103l79 103l68 103l43 -23l-42 -113q125 -105 304 -105q105 0 183 56t78 141.5t-69 131.5q-75 47 -228.5 91t-254 101.5t-100.5 195.5t124 219q121 82 300 82q177 0 317 -54l-78 -209l-42 14l3 94q-121 59 -239 59t-180 -43.5t-62 -113t65 -118.5q68 -45 243 -91.5 t257 -118.5q85 -65 85 -197.5t-129.5 -235t-316.5 -102.5q-110 0 -190 27q-125 43 -218 106z" />
<glyph unicode="t" horiz-adv-x="674" d="M54 964v59l122 35l-10 249l172 47l-9 -298l262 4l-38 -91l-224 4v-591q0 -152 29 -219t100 -67t152 75l37 -37q-25 -45 -90 -104.5t-165 -59.5t-158 66.5t-58 184.5v752z" />
<glyph unicode="u" horiz-adv-x="1207" d="M42 981v53q56 0 134 19q71 10 133 33h36l-9 -354v-288q0 -174 53.5 -261t182 -87t216.5 120q82 124 82 305v150l-9 289l-132 21v53q56 0 132 19q73 12 132 33h39l-2 -366v-340l2 -230q0 -80 7 -82l115 -23l2 -50l-105 5h-106l-77 -3l2 230q-153 -257 -384 -257 q-132 0 -217.5 89t-85.5 232v380l-10 289z" />
<glyph unicode="v" horiz-adv-x="1099" d="M24 1011v50l192 -5l192 5v-50l-101 -21q59 -219 132 -450l143 -446l140 446l125 448l-98 23v50l164 -5l164 5v-50l-84 -21q-45 -106 -193 -505q-87 -254 -169 -508h-152l-176 504q-88 260 -183 507z" />
<glyph unicode="w" horiz-adv-x="1704" d="M24 1011v50l190 -5l190 5v-50l-99 -21l263 -875q71 270 94 341q86 277 164 604l110 1q82 -304 136 -472l146 -474l243 875l-101 21v50l158 -5l160 5v-50l-74 -19l-183 -502q-85 -248 -163 -513h-139l-131 420q-68 199 -127 420l-254 -840h-140l-350 1013z" />
<glyph unicode="x" horiz-adv-x="1099" d="M31 1011v50l187 -5l188 5v-50l-70 -21l220 -357l232 355l-72 23v50l161 -5l158 5v-50l-101 -21l-327 -422l362 -500l98 -16v-57l-197 5l-197 -5v50l89 23l-239 378l-239 -378l99 -23v-50l-169 5l-169 -5v57l86 18l345 444l-342 474z" />
<glyph unicode="y" horiz-adv-x="1030" d="M-40 -509l63 227l50 -6v-88l40 -13q26 -9 58 -8q110 0 200.5 107t132.5 236l21 49h-51l-185 502q-92 258 -191 491l-93 23v50l190 -5l190 5v-50l-99 -19l286 -896q166 519 252 894l-94 21v50l164 -5l162 5v-50l-61 -21q-120 -260 -209 -511l-176 -509q-87 -239 -209 -373 t-309 -134h-38q-63 13 -94 28z" />
<glyph unicode="z" horiz-adv-x="1099" d="M94 0v64l668 926l-185 -2q-78 0 -129.5 -7t-77.5 -10l-114 -21l-57 -146l-54 13l31 183l7 67l296 -11h495v-66l-669 -906l246 -14q108 0 202 19q94 13 134 30l70 134l50 -16l-50 -242h-42l-387 5h-434z" />
<glyph unicode="{" horiz-adv-x="674" d="M119 500q66 30 99 73q37 42 36 128v399q0 117 54.5 190t214.5 73h43v-58h-15q-52 0 -99.5 -47t-47.5 -146v-359q0 -211 -150 -253q150 -34 150 -251v-359q0 -98 46.5 -145.5t100.5 -47.5h15v-58h-43q-157 0 -213 75t-56 188v401q0 84 -34.5 126.5t-100.5 70.5z" />
<glyph unicode="|" horiz-adv-x="425" d="M145 -31v1558h50v-1558h-50z" />
<glyph unicode="}" horiz-adv-x="674" d="M108 -303h17q51 0 98 47t47 146v359q0 115 39 175q42 58 113 76q-70 17 -113 77q-38 61 -39 176v359q0 96 -45 146q-51 47 -100 47h-17v58h44q159 0 213.5 -73t54.5 -190v-399q0 -80 36 -124.5t102 -74.5q-64 -30 -101 -74.5t-37 -124.5v-401q0 -115 -54 -189t-214 -74 h-44v58z" />
<glyph unicode="~" horiz-adv-x="1150" d="M132 434q28 61 92 112.5t151.5 51.5t185.5 -50q159 -81 220 -81t103 41t62 100l74 -71q-38 -72 -94 -115q-61 -51 -149 -51t-215.5 65.5t-189.5 65.5t-95.5 -30.5t-47 -51.5t-25.5 -57z" />
<glyph horiz-adv-x="1917" />
<glyph horiz-adv-x="1917" />
<glyph horiz-adv-x="1917" />
<glyph horiz-adv-x="1917" />
<glyph unicode="&#xa0;" />
<glyph unicode="&#xa1;" horiz-adv-x="1211" d="M21 691.5q0 23.5 17 35.5l16 5l28 -5l9 -7l7 -23q6 -6 -16 -31l-16 -9l-28 9q-17 2 -17 25.5zM73 776q-6 26 28 43q21 0 31 -9l16 -26l-3 -17l-13 -19q-29 -14 -43 0zM85 573q-5 45 44 109l49 62l71 58q68 51 133 64l24 2q42 0 72 -47l12 -54q5 -35 8 -40l-10 -45 l-44 -70q-9 -12 -15 -16l-12 -16l-21 -34q-7 -10 -7 -21v-70q0 -7 12 -35l28 -38q12 -10 35 -40l26 -33q8 -11 22 -79l16 -110q0 -54 -14 -83.5t-56 -43.5h-19q-40 0 -89 38l-69 75l-20 35l-12 39l-26 115l-5 47q-4 33 -28 69zM133 856.5q0 20.5 19 39.5l14 5q37 5 57 -40 q0 -21 -24 -40l-16 -7q-17 0 -31 12q-19 10 -19 30.5zM218 922l2 26l22 23l18 7q26 0 40 -12l12 -13l10 -19q5 -33 -27 -50l-18 -9q-17 -9 -33.5 7.5t-25.5 39.5zM326 1018q0 49 17 61l32 19q17 0 50 -24q16 -16 33 -74v-22q0 -57 -48 -73q-21 -3 -40 10q-23 12 -41 51z M685 98v50l17 110q3 23 21 54l68 78l14 21l9 25l9 22l3 37q0 33 -9 47l-12 30l-73 90l-12 26l-4 32v17l4 25l16 57q5 17 24 35q21 12 45 12l25 -1q31 -4 80 -32q51 -24 97 -66q48 -34 84 -85q35 -44 35 -88l-2 -21l-3 -17l-101 -148l-20 -37l-12 -76l-28 -115l-1 -20l-2 -19 q0 -8 -14 -28l-33 -42l-35 -36l-42 -26q-9 -7 -36 -12l-41 -6q-42 7 -59 46l-9 38zM756 969l2 44q0 34 15 48t32 25q49 16 75 -31l9 -51l-5 -38q0 -17 -26 -47q-16 -23 -34 -23q-68 0 -68 73zM896 901v30q0 19 18 33t36 14l24 -9q9 -5 15 -19t6 -30.5t-21 -35.5 q-21 -12 -38 -13l-21 7q-12 3 -19 23zM992 840.5q0 11.5 3 25.5q14 28 47 33l18 -7q17 -5 22 -40q0 -30 -55 -38l-14 5q-21 10 -21 21.5zM1067 762v17q2 5 3.5 9.5t6.5 13.5q10 10 35 15l12 -7q21 -12 15 -38t-41 -31q-27 5 -31 21zM1117 688q0 16 12 35l28 9l20 -5 q9 -7 10 -14l5 -25l-9 -13l-6 -13l-32 -8l-12 5q-16 14 -16 29z" />
<glyph unicode="&#xa2;" horiz-adv-x="1199" d="M21 807q0 30 37 35q14 0 27 -11l7 -34q0 -16 -19 -30h-15q-30 0 -37 40zM61 682q0 47 103 132q23 20 84.5 52.5t114.5 46.5q56 5 81 -1q33 -12 44 -58l10 -56q0 -72 -47 -110l-29 -29q-33 -28 -56.5 -59.5t-23.5 -77.5t31 -98l28 -42l16 -30l8 -47v-31q0 -16 4 -39 q0 -68 -23.5 -129t-76.5 -61q-26 0 -52 12.5t-47 38.5l-59 90q-5 5 -11 35v44l-12 117l4 47l-4 31q0 17 -9 38l-69 161zM86 885.5q0 19.5 19 29.5l20 4q16 -7 27 -20l8 -21q0 -17 -22 -33q-27 -6 -42 7q-10 14 -10 33.5zM160 946.5q0 24.5 26 38.5l13 3q19 0 33 -13t14 -34 t-26 -36l-20 -6q-12 -5 -26 9t-14 38.5zM253 1000q0 32 31 44l23 7l17 -7q30 -19 30 -49.5t-28 -46.5l-23 -2q-24 -5 -38 13zM371 1033q0 43 16 76q17 33 52 38q25 0 45 -36t20 -74.5t-8 -50t-29 -33.5l-28 -7q-26 -5 -49 25q-19 33 -19 62zM697 657l4 40l14 35q7 17 21 26 l27 9q26 0 47 -31l13 -39q7 -16 7 -39t-4 -31l-12 -33q-11 -26 -46 -26q-71 0 -71 89zM704 417l7 59q5 63 84 63q75 0 188 -60q61 -28 107 -73t46 -106l-3 -12l-31 -67l-51 -132q-3 -10 -3 -38l3 -44l-10 -145l-6 -35q-13 -45 -66 -109q-35 -43 -98 -53q-35 0 -62 35l-30 77 l-5 35l-2 47v61q0 24 12 56l35 55l30 61l9 44q0 56 -21 84l-18 24l-68 61l-31 37q-9 5 -14 33zM844 612q0 23 13.5 42t38.5 19l19 -5q31 -10 31 -38.5t-12 -45.5q-14 -14 -35 -19l-22 3q-14 0 -23 16zM953 559.5q0 15.5 13 33.5l34 17l16 -3q26 -6 26 -36.5t-42 -49.5l-19 7 l-21 9q-7 7 -7 22.5zM1039 498q0 34 40 41h16q13 -9 22 -35q0 -12 -10.5 -26t-27.5 -14h-16q-14 0 -19 14zM1105 426q0 27 35 38l19 -4q16 -5 21 -31q0 -17 -12 -30l-28 -12l-16 3q-19 9 -19 36z" />
<glyph unicode="&#xa3;" horiz-adv-x="1199" d="M21 429q0 24 37 35q31 0 36 -42q0 -28 -36 -35q-31 0 -37 42zM61 300q0 47 64 99l61 52l74 47l78 30q5 3 35 9l33 2q66 0 82 -63l10 -59q5 -33 -19 -71.5t-57 -63.5l-33 -29l-26 -32q-7 -5 -16 -43q0 -21 -5 -42q0 -40 31 -91l28 -42l16 -31l7 -42l5 -71 q0 -75 -23 -131.5t-77 -62.5q-19 0 -49 11.5t-50 41.5l-35 52l-24 42q-10 24 -11 75l-12 120l4 44l-4 31q0 12 -9 42l-69 164zM85 504l4 19q7 11 16 16h20q35 -9 35 -41q0 -17 -22 -34h-13q-19 0 -31 12zM162 565.5q-2 27.5 24 41.5l13 3q39 0 47 -49q0 -24 -26 -33l-20 -7 q-5 -3 -24 7q-12 10 -14 37.5zM253 620q0 24 31 48l23 5q17 0 31 -19q37 -49 -12 -86l-23 -3q-45 0 -50 55zM371 659q0 99 68 108q27 0 44 -35q21 -33 21 -76.5t-20 -65.5t-43 -22q-61 0 -70 91zM697 960l4 44l14 31q17 30 48 35q26 0 47 -31l13 -39q7 -16 7 -36.5t-4 -32.5 l-12 -35q-12 -25 -48 -25t-49.5 22t-19.5 67zM704 723l7 56q5 61 84 61q12 0 47 -9l61 -17l63 -28q23 -9 47 -28l28 -21l38 -33q58 -47 57 -97l-3 -21l-31 -58l-39 -103l-12 -38l-3 -35l3 -45l-10 -145l-6 -30q-24 -64 -46.5 -89.5t-40.5 -39.5q-28 -30 -73.5 -32t-67.5 36 l-14 35l-19 59v12l-2 49v59q0 21 12 58l35 59l30 56q9 31 9 46q0 71 -37 106l-70 61l-31 38l-11 30zM844 919q0 21 14 38q16 14 38 16l19 -4q31 -10 31 -49t-47 -54l-22 5q-17 0 -25 16zM953 865q0 35 47 50l16 -3q26 -6 26 -40t-42 -46l-19 2q-23 5 -28 37zM1039 802 q0 33 40 40l16 -2q22 -13 22 -33q0 -30 -38 -40h-16q-12 0 -19 12zM1102 711q0 28 24 45l14 11l19 -5q16 -6 21 -30q0 -17 -12 -31l-28 -13q-32 8 -38 23z" />
<glyph unicode="&#xa4;" horiz-adv-x="970" d="M21 573q5 51 14 67l10 38l21 37l101 116l35 34l25 27q12 16 19 34l63 162l6 17q19 14 48 21l66 9h45l122 -33q59 -17 109.5 -53t50.5 -83q0 -24 -15 -40l-35 -42q-28 -30 -61 -44l-49 -7l-75 7l-45 -7q-42 0 -79 -43q-30 -42 -40 -86l-14 -45l-5 -21q0 -9 -7 -23l-70 -82 q-23 -31 -62 -52l-61 -30l-35 -5l-25 5q-28 5 -43 44q-14 44 -14 78zM148 -136l5 23l30 68l99 108l23 22q3 3 26 9l16 9l24 5q16 0 25 5l61 16q17 5 38 26l28 37l19 33v179q0 12 11.5 24.5t16.5 19.5t19 16l38 38q23 17 42 17t37 -12q71 -37 112 -190q19 -68 19 -129v-29 q0 -30 -6 -46q-2 -24 -33 -47l-69 -21l-102 -42l-29 -17l-30 -23l-28 -36l-89 -80l-43 -30l-33 -16l-32 -10l-34 -5l-37 -4l-42 5q-66 9 -82 77zM363 1199l15 26l19 9l20 -3l12 -11q0 -2 2.5 -5.5t7.5 -15.5q0 -16 -10 -35l-25 -5h-15l-13 11q-9 7 -13 29zM464 1206 q0 23 34 37l18 -4l12 -8q7 -7 7 -20q0 -47 -31 -47l-28 9q-7 7 -8 18.5t-4 14.5zM558 1192q0 21 11.5 30t33.5 17l17 -5l14 -9q21 -29 4.5 -52t-35.5 -26l-16 2l-19 12q-10 10 -10 31zM659 1156q5 23 19 43l37 12l21 -5l15 -12q12 -17 12 -36t-13.5 -36t-34.5 -17l-25 4 l-15 12q-10 3 -16 35zM726.5 551.5q-1.5 30.5 17.5 68.5q21 33 73 60l25 5q35 0 45 -51l-3 -22l-16 -37l-23 -24q-14 -14 -22 -18q-40 -30 -72 -22q-23 10 -24.5 40.5zM762 1048q-5 30 12 69q17 33 82 63l19 2q49 0 49 -49l-2 -21l-14 -37q-9 -10 -16 -19.5t-12 -11.5 l-24 -19q-29 -33 -59 -21q-21 10 -35 44zM810 474q-2 16 15 29t32.5 18t43.5 -9l14 -20v-23q0 -12 -14 -35l-40 -17q-28 4 -31 17l-16 17zM852 364q0 30 49 40l30 -10l8 -16l7 -17q4 -26 -45 -44q-16 0 -36 12zM861 162q0 10 10 21l30 16l12 -4l14 -9l11 -12q7 -5 2.5 -19 t-9.5 -19l-30 -12l-26 12l-10 12zM868 261q-2 7 12 21q34 24 58 6l8 -16q6 -12 -3.5 -31t-29 -19.5t-29.5 8.5z" />
<glyph unicode="&#xa5;" horiz-adv-x="1450" d="M21 288l2 17l22 106q6 38 46 65l80 89l31 29l19 21l27 42l40 98l21 66l10 19q52 26 110 26l52 -5q47 -8 70 -16q39 -5 64.5 -15.5t37.5 -17t24.5 -13t24 -15t25.5 -24.5q29 -35 29 -59.5t-15 -43.5l-35 -45l-31 -26q-16 -12 -37 -18h-164q-40 -5 -64 -34 q-31 -37 -53 -100l-22 -82q-4 -12 -28 -43l-53 -51l-62 -47l-51 -28l-33 -5q-40 0 -63.5 34t-23.5 76zM364 927q5 17 11 26l24 13l18 -4l12 -9l7 -27l-11 -27l-17 -12l-35 12zM460 938l16 28q9 7 12 7l10 1l16 -3l14 -9q5 -3 5 -26l-7 -28l-10 -7l-12 -5l-14 3l-16 11 q-5 2 -10 12zM558 915q0 46 45 56l17 -5l14 -9q9 -5 9 -29q0 -42 -36 -50l-21 6q-28 16 -28 31zM633 80l1 25l25 61l33 40l70 73l12 10l12 7l54 21l37 9l59 21q31 14 56 35q21 23 24 42l9 34l2 20v29l-6 61q0 42 5.5 58.5t43.5 53.5l40 35q19 14 37.5 14t32.5 -6 q58 -33 105 -150l27 -92l9 -77q2 -9 2 -18v-15q0 -35 -12 -49l-19 -33l-182 -69l-36 -21l-26 -23l-27 -37l-134 -111l-26 -12l-71 -19h-35l-49 3q-28 5 -51 26q-23 26 -22 54zM659 891q0 19 17 33q10 12 37 15l19 -1l17 -12q12 -5 12.5 -30t-13.5 -42t-35 -17l-19 3l-18 14 l-14 12zM760 809q5 33 30 59q16 28 52 42l36 5q14 0 28.5 -11.5t17.5 -35.5l-2 -24q-10 -31 -36 -62q-35 -43 -71 -43h-8q-28 0 -37.5 15.5t-9.5 54.5zM1199 787.5q0 22.5 14 42.5q20 27 42 41l44 21l22 4q23 5 35 -14.5t12 -36.5v-17q-32 -84 -103 -101q-23 -2 -54 14 q-12 24 -12 46.5zM1290 688q-6 34 57 48q16 0 35 -11l16 -45l-5 -18l-7 -12l-40 -16q-12 0 -39 11l-14 21zM1335 580q0 7 9 18.5t31.5 14t34.5 -5.5l11 -14l7 -20q4 -8 -13 -27q-16 -12 -33 -13h-16q-31 27 -31 47zM1339 385l19 14q12 7 24 7q14 0 39 -16q9 -5 0 -24 l-11 -14q-7 -10 -23.5 -11t-30.5 6l-10 14q-12 12 -7 24zM1354 476l2 14l4 8l26 14q10 0 15 -1l20 -13l7 -10q2 -30 -7 -40l-32 -14l-16 7l-7 5l-10 12z" />
<glyph unicode="&#xa6;" horiz-adv-x="425" d="M145 -31v582h50v-582h-50zM145 945v582h50v-582h-50z" />
<glyph unicode="&#xa8;" horiz-adv-x="1408" d="M35 677.5q0 136.5 40 228.5t74 142t85 99q87 91 209 145t261 54q195 0 370 -115q158 -103 244 -297q55 -125 55 -256q0 -279 -198.5 -474t-468.5 -195q-136 0 -258 52q-243 103 -361 356q-52 124 -52 260.5zM122 678q0 -236 173 -411q74 -77 184 -128q111 -45 227 -45 q230 0 411 173q80 77 125.5 183t45.5 223.5t-49 225.5q-40 101 -121 183q-176 178 -412 178q-235 0 -408 -172q-176 -174 -176 -410zM333 715q0 -70 42 -121q42 -66 130 -113q92 -42 215.5 -42t217.5 75l49 40l40 40q40 60 40 121q0 -186 -96 -297q-40 -51 -94 -75 q-92 -41 -175 -41q-148 0 -261 120l-27 32q-3 3 -17 25q-24 30 -38 72l-19 76q-7 33 -7 88zM413 910q0 37 30.5 65.5t62 28.5t63 -27t31.5 -64.5t-29 -65.5t-66.5 -28t-64.5 27t-27 64zM807 903.5q0 37.5 26 63.5q33 28 67 28t60.5 -25.5t31.5 -63.5q0 -30 -26 -61 q-28 -28 -66.5 -28t-68.5 25q-24 24 -24 61.5z" />
<glyph unicode="&#xa9;" horiz-adv-x="862" d="M33 959.5q0 166.5 118.5 283.5t284 117t283.5 -119t118 -285t-118.5 -283t-285 -117t-283.5 118.5t-117 285zM84 957q0 -146 102.5 -248t247.5 -102t248.5 102.5t103.5 247.5t-102 248.5t-248.5 103.5t-249 -103t-102.5 -249zM209 954.5q0 100.5 73.5 168t186.5 67.5 q38 0 89.5 -14.5t53.5 -25.5v-85l-16 -4q-5 54 -43 77q-35 28 -108.5 28t-118 -57.5t-44.5 -145.5t45.5 -146.5t143 -58.5t143.5 98l15 -2l-19 -84q-5 -12 -56 -24l-104 -10q-108 0 -174.5 59t-66.5 159.5z" />
<glyph unicode="&#xab;" horiz-adv-x="958" d="M173 549l235 340l63 -31l-133 -309l127 -308l-61 -34zM493 549l236 340l61 -31l-133 -309l129 -308l-61 -34z" />
<glyph unicode="&#xad;" horiz-adv-x="817" d="M84 495l52 106h99l497 4l-50 -108h-102z" />
<glyph unicode="&#xae;" horiz-adv-x="862" d="M33 955q0 166 116 282.5t282.5 116.5t283.5 -116q116 -120 116 -284.5t-116.5 -281t-282.5 -116.5t-282.5 117t-116.5 282zM84 955q0 -145 102.5 -246.5t244.5 -101.5t247 102.5t105 246.5t-102.5 246.5t-248 102.5t-247 -102.5t-101.5 -247.5zM244 746v23q35 0 44.5 7 t13.5 28v315q0 16 -13 28q-21 7 -45 7v21h185q89 0 130 -32q37 -35 37 -74t-27 -74.5t-79 -46.5l101 -139q9 -10 15 -18q15 -20 48 -29v-16h-70q-17 0 -40 30q-93 125 -119 163h-55v-135q0 -35 52 -35v-23h-178zM370 960h52q45 0 71 27q23 28 23 75q0 88 -91 88h-55v-190z " />
<glyph unicode="&#xaf;" horiz-adv-x="533" d="M-21 1314v107h575v-107h-575z" />
<glyph unicode="&#xb0;" horiz-adv-x="766" d="M120 1135q0 109 76 185t183 76t184 -76.5t77 -182.5t-76 -183t-184 -77t-184 74.5t-76 183.5zM221 1137q0 -65 46.5 -112t111.5 -47t111.5 46t46.5 112t-46 112.5t-111 46.5q-64 0 -111.5 -46.5t-47.5 -111.5z" />
<glyph unicode="&#xb1;" horiz-adv-x="1150" d="M89 0v99h971v-99h-971zM89 521v99h436v353h101v-353h434v-99h-434v-350h-101v350h-436z" />
<glyph unicode="&#xb4;" horiz-adv-x="533" d="M94 1225q48 118 107.5 186.5t126.5 129.5q51 -59 139 -80q-94 -45 -144 -89q-81 -72 -170 -183l-31 21q-9 8 -28 15z" />
<glyph unicode="&#xb6;" horiz-adv-x="592" d="M0 771.5q0 91.5 64 145.5q64 59 189 59h341v-87h-75v-845h-94v845h-118v-845h-89v519q-92 0 -155 58.5t-63 150z" />
<glyph unicode="&#xb7;" d="M204 514v168h171v-168h-171z" />
<glyph unicode="&#xbb;" horiz-adv-x="958" d="M171 858l59 31l234 -340l-230 -342l-60 34l126 308zM492 858l59 31l233 -340l-230 -342l-59 34l124 308z" />
<glyph unicode="&#xbc;" horiz-adv-x="1704" d="M204 1290v31q45 9 94 26l85 37h44l-3 -267v-327l5 -197l87 -14v-30l-146 4l-143 -4v30l85 14l5 197v364l-3 136h-110zM338 -61l804 1445l146 30l-803 -1447zM997 300l216 298q122 164 208 296h62l12 -17l-407 -567h317v361l90 38l18 -15l-7 -86v-298h14q40 0 68 11l36 10 l16 -17l-52 -68h-82l5 -204l79 -12v-32l-135 4l-158 -4v32l104 12l4 195v9h-370z" />
<glyph unicode="&#xbd;" horiz-adv-x="1704" d="M204 1290v31q45 9 94 26l85 37h44l-3 -267v-327l5 -197l87 -14v-30l-146 4l-143 -4v30l85 14l5 197v364l-3 136h-110zM338 -61l804 1445l146 30l-803 -1447zM993 44q177 115 326 273q42 42 101.5 127.5t59.5 166.5t-41 122t-108 41t-102 -14q-56 -22 -75 -38l2 -79 l-34 -9l-41 145q126 52 212 52t134 -13.5t89 -47.5q80 -59 80.5 -150.5t-81.5 -196t-133 -149.5q-94 -94 -200 -162q-35 -24 -53 -35l143 -6l169 7l112 13l44 66l29 -5l-36 -155h-576z" />
<glyph unicode="&#xbe;" horiz-adv-x="1704" d="M26 675l134 76l13 -19l-32 -44q17 -32 64 -65t135.5 -32.5t155.5 63t67 148t-52.5 136t-163.5 50.5l-86 -12l-12 42q85 21 157.5 62.5t72.5 122.5q0 54 -33 88.5t-96.5 34.5t-100.5 -19l-52 -26l7 -49l-31 -8q-10 47 -34 76l-17 33l84 30q58 21 156.5 21t158.5 -49 q66 -48 66 -127q0 -52 -40 -101t-143 -75q155 0 214.5 -59.5t59.5 -142.5q0 -120 -110.5 -208.5t-240.5 -88.5t-202 46q-73 47 -99 96zM371 -61l804 1445l148 30l-804 -1447zM997 300l216 298q122 164 208 296h62l12 -17l-407 -567h317v361l90 38l18 -15l-7 -86v-298h14 q40 0 68 11l36 10l16 -17l-52 -68h-82l5 -204l79 -12v-32l-135 4l-158 -4v32l104 12l4 195v9h-370z" />
<glyph unicode="&#xbf;" horiz-adv-x="958" d="M113 -12q0 92 106.5 199.5t292.5 161.5l18 237l71 21l58 -300l-30 -39q-168 -31 -253 -118q-84 -89 -83.5 -176t59.5 -144t147 -57t160 39l75 36l-4 112l42 16l70 -180q12 -26 23 -42q-12 -7 -56.5 -23.5t-107.5 -39t-187 -22.5q-202 0 -301.5 94t-99.5 225zM476 983 q0 42 29.5 72.5t70.5 30.5t71.5 -30.5t30.5 -70.5t-29.5 -70.5t-68 -30.5t-76.5 29q-28 28 -28 70z" />
<glyph unicode="&#xc0;" horiz-adv-x="0" />
<glyph unicode="&#xc1;" horiz-adv-x="0" />
<glyph unicode="&#xc2;" horiz-adv-x="0" />
<glyph unicode="&#xc3;" horiz-adv-x="0" />
<glyph unicode="&#xc4;" horiz-adv-x="0" />
<glyph unicode="&#xc5;" horiz-adv-x="0" />
<glyph unicode="&#xc6;" horiz-adv-x="0" />
<glyph unicode="&#xc7;" horiz-adv-x="0" />
<glyph unicode="&#xc8;" horiz-adv-x="0" />
<glyph unicode="&#xc9;" horiz-adv-x="0" />
<glyph unicode="&#xca;" horiz-adv-x="1552" d="M35 531q0 177 66 314q145 274 453 375q157 51 328 51q146 0 256 -24q233 -51 330 -173q51 -59 50 -126h-769v246l-662 -666l662 -662v247h769q0 -61 -54 -132q-51 -61 -146 -106q-92 -47 -196 -65l-118 -17l-122 -6q-186 0 -328 51q-156 47 -268 143q-113 91 -182 232 t-69 318z" />
<glyph unicode="&#xcb;" horiz-adv-x="1638" d="M35 464l545 549h346l-440 -427h1118v-241h-1118l440 -427h-346z" />
<glyph unicode="&#xcc;" horiz-adv-x="1631" d="M35 464l451 502q60 71 138 82q17 0 42 -16q64 -23 108 -84q17 -30 23 -77q0 -58 -70 -128l-124 -119l800 3q98 0 143 -40q51 -34 51 -123q0 -164 -185 -164l-809 7l124 -119q12 -16 25 -31.5t29 -43.5t16 -57q0 -55 -53.5 -112t-119.5 -57q-26 0 -37 5l-33 12l-31 23 l-37 35z" />
<glyph unicode="&#xcd;" horiz-adv-x="775" d="M35 464l472 798v-274h234v-1049h-234v-272z" />
<glyph unicode="&#xce;" horiz-adv-x="1680" d="M35 455v16l78 36l77 51q14 10 45 36.5t69 56.5t74 81q40 49 75 106l72 128h10v-206h357v-587h-357v-211h-10q-177 356 -490 493zM936 173v587h152v-587h-152zM1168 173v587h111v-587h-111zM1384 173v587h75v-587h-75zM1591 173v587h54v-587h-54z" />
<glyph unicode="&#xcf;" horiz-adv-x="1645" d="M35 441l507 539v-213h1070v-605h-1070v-211z" />
<glyph unicode="&#xd0;" horiz-adv-x="1720" d="M35 446v35q40 16 73 35t61 38.5t30 18.5q60 45 129 114l71 78l12 19q16 26 26 37l48 75l48 91h47v-208h358v-631h-358v-207h-45q-78 151 -124.5 211.5t-79.5 92.5q-61 59 -132 109q-51 28 -97 54.5t-67 37.5zM66 476q164 -74 290 -202q111 -103 202 -288h-19v206h399v545 h-399v209h19q-70 -148 -114.5 -200t-82.5 -89l-108 -89q-85 -59 -178 -113zM938 148v631h195v-631h-195zM980 192h111v545h-111v-545zM1170 148v631h149v-631h-149zM1206 192h73v545h-73v-545zM1386 148v631h115v-631h-115zM1426 192h36v545h-36v-545zM1593 148v631h92v-631 h-92zM1633 192h11v545h-11v-545z" />
<glyph unicode="&#xd1;" horiz-adv-x="1697" d="M35 441l558 591v-248h1068v-639h-1068v-244zM91 441l463 -441v186h1063v558h-1063v183z" />
<glyph unicode="&#xd2;" horiz-adv-x="1701" d="M35 145v639h1070v248l561 -591l-561 -540v244h-1070zM80 186h1067v-186l458 441l-458 486v-183h-1067v-558z" />
<glyph unicode="&#xd3;" horiz-adv-x="1720" d="M35 148v631h92v-631h-92zM78 192h9v545h-9v-545zM220 148v631h118v-631h-118zM260 192h35v545h-35v-545zM401 148v631h152v-631h-152zM444 192h70v545h-70v-545zM587 148v631h197v-631h-197zM633 192h108v545h-108v-545zM784 148v631h356v208h50q84 -180 197 -299 q123 -123 298 -207v-35q-101 -45 -161 -89.5t-131 -110.5l-40 -42q-17 -27 -32 -38l-40 -54l-47 -77q-20 -47 -47 -94h-47v207h-356zM784 192h401v-206h-19q94 208 262 348q33 27 87 63.5t143 78.5l-14 -21q-89 47 -150 87q-63 51 -131 115q-144 153 -197 289h19v-209h-401 v-545z" />
<glyph unicode="&#xd4;" horiz-adv-x="1647" d="M35 162v605h1070v213l509 -539l-509 -490v211h-1070z" />
<glyph unicode="&#xd5;" horiz-adv-x="1680" d="M35 173v587h50v-587h-50zM220 173v587h73v-587h-73zM399 173v587h115v-587h-115zM587 173v587h154v-587h-154zM784 173v587h358v206h10q70 -161 204 -295l103 -85l30 -27l71 -43q38 -16 85 -45v-16q-35 -16 -73 -38q-51 -21 -82 -46l-66 -52l-68 -61q-109 -117 -204 -296 h-10v211h-358z" />
<glyph unicode="&#xd6;" horiz-adv-x="779" d="M35 -61v1049h233v274l475 -798l-475 -797v272h-233z" />
<glyph unicode="&#xd7;" horiz-adv-x="1631" d="M35 458q0 83 47 126.5t138 42.5l807 -3l-154 148l-19 33l-12 35l-5 31q-2 7 -2 22t14.5 44.5t40.5 52.5q64 58 110 58t70 -16q30 -21 77 -66l448 -502l-448 -502q-30 -33 -72 -58l-69 -17q-5 -2 -22 -2t-41 10q-99 70 -106 163q0 64 68 130l122 119l-800 -7 q-78 0 -140 38q-52 37 -52 120z" />
<glyph unicode="&#xd8;" horiz-adv-x="1640" d="M35 345v241h1117l-441 427h349l545 -549l-545 -546h-349l441 427h-1117z" />
<glyph unicode="&#xd9;" horiz-adv-x="1552" d="M35 113h765v-247l662 662l-662 666v-246h-765q0 80 40 123.5t69 64.5t96 56t187 57t267 22t300 -50.5t266.5 -142t189.5 -236.5q68 -139 68 -312t-70.5 -312.5t-184.5 -232.5q-243 -198 -595 -198h-34q-45 0 -94 7l-109 16q-108 20 -210 70q-86 47 -130 94 q-56 52 -56 139z" />
<glyph unicode="&#xf1;" horiz-adv-x="1690" d="M35 56h50l16 -25l18 25h26l54 52h54v54l29 31h53v53h29l138 139v32h56v48l28 28h55l27 32h59v82l78 81h28l28 27h47l28 -27l112 -163v-277h-30l-82 -79l56 -61h59l82 85h84v53h83l54 56h61v57h53v139l-30 30v54l-23 28v54h-61v30l-54 54h-29l-25 26l-251 169h-113 l-108 -112h-26l-108 -111h-58l-111 -110h-27l-27 -28h-25l-85 -84h-28l-26 -27h-56v-51h-30l-52 -59h-30l-50 -28v995h1623v-1680h-1623v408z" />
<glyph unicode="&#x152;" horiz-adv-x="725" d="M35 927l5 19q21 0 36.5 -1.5t35.5 -10.5q16 -3 43 -26q34 -19 65 -64q3 -2 7 -13l33 -59l22 -33l40 -77q8 -25 32 -48l22 -32l18 -19q4 -10 9 -19t8 -16l21 -35l9 -12l57 -87l34 43l19 55l24 48h40l23 -7l40 -28l7 -17l3 -23q0 -26 -3 -33q0 -28 -7 -42l-68 -170l-19 -2 q-9 0 -23 -7l-33 -7q-42 5 -59 26t-30 47l-139 246l-14 23q-3 9 -9 12l-104 169l-61 92l-11 14q-3 10 -7 14l-23 24z" />
<glyph unicode="&#x153;" horiz-adv-x="1139" d="M35 -40l26 54q7 19 38 66l86 127l56 75q5 7 34.5 46.5t39.5 53.5l79 104l68 82l-153 445l24 45l28 12l12 -5l21 -14l14 16l16 -7l31 31l33 -9l152 -303l301 356h28l44 -30l47 40l10 -29l35 -49l-45 -60l-94 -113q-45 -52 -98 -127l-129 -181l193 -431l-24 -21v-14 l-40 -31l14 -30q-2 -7 -28 -33q-16 -10 -35 -14q-41 17 -76 77l-170 281l-179 -265q-2 -5 -35 -60l-148 -251l-35 -12l-80 -10l-40 55l-16 46l16 56z" />
<glyph unicode="&#x178;" horiz-adv-x="1253" d="M35 5v249h36l14 -15l9 15h19l47 41h33v40l21 19h40v43h21l101 98v24h41v37l17 19h44l20 23h41v57l59 60h17l23 22h37l20 -22l79 -117v-199h-18l-61 -64l37 -40h47l61 59h59v43h61l40 40h39v39h40v106l-19 19v40l-21 18v43h-39v23l-40 37h-24l-21 19l-181 120h-80l-79 -80 h-21l-76 -82h-44l-80 -80h-19l-20 -18h-17l-64 -59h-21l-20 -24h-38v-35h-23l-43 -42h-18l-36 -23v724h1183v-1177h-1183z" />
<glyph unicode="&#x2c6;" horiz-adv-x="0" />
<glyph unicode="&#x2dc;" horiz-adv-x="533" d="M-96 1300q40 64 98.5 114t119.5 50q54 0 129 -35q108 -51 192 -61q61 0 148 96l42 -38q-40 -64 -85 -102q-76 -62 -128 -62t-162 48t-169.5 48t-142.5 -96z" />
<glyph unicode="&#x2000;" horiz-adv-x="770" />
<glyph unicode="&#x2001;" horiz-adv-x="1541" />
<glyph unicode="&#x2002;" horiz-adv-x="770" />
<glyph unicode="&#x2003;" horiz-adv-x="1541" />
<glyph unicode="&#x2004;" horiz-adv-x="513" />
<glyph unicode="&#x2005;" horiz-adv-x="385" />
<glyph unicode="&#x2006;" horiz-adv-x="256" />
<glyph unicode="&#x2007;" horiz-adv-x="256" />
<glyph unicode="&#x2008;" horiz-adv-x="192" />
<glyph unicode="&#x2009;" horiz-adv-x="308" />
<glyph unicode="&#x200a;" horiz-adv-x="85" />
<glyph unicode="&#x2010;" horiz-adv-x="817" d="M84 495l52 106h99l497 4l-50 -108h-102z" />
<glyph unicode="&#x2011;" horiz-adv-x="817" d="M84 495l52 106h99l497 4l-50 -108h-102z" />
<glyph unicode="&#x2012;" horiz-adv-x="817" d="M84 495l52 106h99l497 4l-50 -108h-102z" />
<glyph unicode="&#x2013;" horiz-adv-x="958" d="M-30 495l53 106h475l485 4l-51 -108h-475z" />
<glyph unicode="&#x2014;" horiz-adv-x="1917" d="M-24 495l50 106h1429l488 4l-50 -108h-1429z" />
<glyph unicode="&#x2018;" d="M152 885q0 114 75 272q66 157 132 230l58 -31q-51 -134 -75.5 -224t-24.5 -233l-80 -3z" />
<glyph unicode="&#x2019;" d="M152 917q51 134 75 224t24 232l89 4l77 9q0 -100 -69 -260t-139 -242z" />
<glyph unicode="&#x201a;" d="M152 -298q51 134 75 224t24 233l89 5l77 9q0 -96 -75 -272q-64 -150 -133 -230z" />
<glyph unicode="&#x201c;" horiz-adv-x="817" d="M84 885q0 101 72.5 265t134.5 237l58 -31q-75 -198 -87.5 -292.5t-12.5 -164.5l-78 -3zM471 885q0 108 71.5 268.5t133.5 233.5l58 -31q-61 -166 -74 -219q-26 -113 -26 -238l-78 -3z" />
<glyph unicode="&#x201d;" horiz-adv-x="817" d="M84 917q80 219 90.5 301t10.5 155l87 4l77 9q0 -104 -70.5 -264.5t-137.5 -237.5zM471 917q63 187 74 230q25 97 25 226l87 4l77 9q0 -104 -75 -272q-64 -152 -131 -230z" />
<glyph unicode="&#x201e;" horiz-adv-x="817" d="M84 -298q80 215 90.5 299t10.5 158l87 5l77 9q0 -110 -75 -272q-66 -157 -133 -230zM471 -298q61 177 73 224q26 103 26 233l87 5l77 9q0 -110 -75 -272q-64 -155 -131 -230z" />
<glyph unicode="&#x2022;" horiz-adv-x="671" d="M103 673.5q0 98.5 70.5 167.5t167 69t166.5 -71.5t70 -166.5t-70 -168q-73 -70 -169 -70t-165.5 70.5t-69.5 169z" />
<glyph unicode="&#x2026;" horiz-adv-x="725" d="M35 448q-5 24 17 57l37 28l24 7h42l19 -48l7 -28l12 -25l34 -45l52 77l56 92l10 12q24 42 33 52l103 170l11 25q1 4 6 9l14 23q23 42 75 68q58 24 98 24l3 -19l-40 -56l-22 -24l-80 -120l-32 -56l-50 -73l-86 -143l-80 -148l-31 -53l-28 -36q-2 -3 -49 -14q-30 0 -58 14 h-12l-5 2l-40 99l-23 71z" />
<glyph unicode="&#x202f;" horiz-adv-x="308" />
<glyph unicode="&#x2039;" horiz-adv-x="0" />
<glyph unicode="&#x203a;" horiz-adv-x="0" />
<glyph unicode="&#x205f;" horiz-adv-x="385" />
<glyph unicode="&#x2122;" horiz-adv-x="1068" d="M40 1260v94h371v-94h-31q0 26 -15.5 47t-43.5 21h-63v-340q0 -28 5 -35t49 -12v-19h-173v19q38 0 47 9.5t9 37.5v340h-66q-23 0 -40.5 -20t-17.5 -48h-31zM469 922v19q35 0 43.5 12.5t8.5 34.5v298q0 26 -8.5 36.5t-43.5 10.5v21h103l174 -348l173 348h99v-21 q-35 0 -47 -8q-7 -10 -7 -39v-298q0 -26 6 -34t48 -13v-19h-167v19q35 0 43.5 12.5t8.5 34.5v267l-167 -333h-16l-167 333v-267q0 -28 6 -35t49 -12v-19h-139z" />
<glyph unicode="&#xe000;" horiz-adv-x="1063" d="M0 0v1063h1063v-1063h-1063z" />
</font>
</defs>
</svg>
